<svg xmlns="http://www.w3.org/2000/svg" width="24.592" height="21.433" viewBox="0 0 24.592 21.433">
  <g id="Layer_24" data-name="Layer 24" transform="translate(-2.75 -5.808)">
    <path id="Path_509" data-name="Path 509" d="M27.058,20.485,24.7,14.757a.415.415,0,0,0-.382-.258H19.955a.415.415,0,0,0-.415.415v7.568h-.993V11.5a.415.415,0,0,0-.415-.415H16.055a5.288,5.288,0,0,0-10.563,0H3.415A.415.415,0,0,0,3,11.5V24.726a.415.415,0,0,0,.415.415H4.529a2.26,2.26,0,0,0,4.444,0h.993a2.26,2.26,0,0,0,4.444,0h6.721a2.26,2.26,0,0,0,4.444,0h1.1a.415.415,0,0,0,.415-.415V20.642A.415.415,0,0,0,27.058,20.485Zm-1-.258H23.15v-4.9h.914ZM19.54,24.31H14.41a2.276,2.276,0,0,0-.449-.98H19.54Zm-9.554,0H8.973a2.272,2.272,0,0,0-.444-.98H10.41a2.272,2.272,0,0,0-.444.98Zm.785-17.271A4.465,4.465,0,1,1,6.323,11.5a4.465,4.465,0,0,1,4.449-4.465ZM3.831,11.92H5.492a5.288,5.288,0,0,0,10.546,0H17.7V22.445H3.831Zm0,11.394H4.977a2.276,2.276,0,0,0-.449,1h-.7Zm2.908,2.825a1.429,1.429,0,0,1-.32-2.825h.652a1.429,1.429,0,0,1-.332,2.825Zm5.433,0a1.429,1.429,0,0,1-.32-2.825h.64a1.429,1.429,0,0,1-.32,2.825Zm11.182,0a1.433,1.433,0,1,1,1.433-1.412A1.433,1.433,0,0,1,23.353,26.138Zm2.222-1.828a2.26,2.26,0,0,0-4.444,0h-.76V15.33H22.3v5.313a.415.415,0,0,0,.415.415h3.547V24.31Z" transform="translate(0 0)" fill="#7b7b7b" stroke="#707070" stroke-width="0.5"/>
    <path id="Path_510" data-name="Path 510" d="M16.436,18.078a.415.415,0,0,0,.316.145h0a.415.415,0,0,0,.32-.166l2.908-3.813a.415.415,0,1,0-.665-.5l-2.575,3.4-1.35-1.587a.415.415,0,1,0-.615.536Z" transform="translate(-6.79 -4.398)" fill="#7b7b7b" stroke="#707070" stroke-width="0.5"/>
  </g>
</svg>
