<svg xmlns="http://www.w3.org/2000/svg" width="26.6" height="17.26" viewBox="0 0 26.6 17.26"><g transform="translate(-6.4 -26.8)"><path d="M27.048,26.8H7.339a.943.943,0,0,0-.939.939V43.122a.943.943,0,0,0,.939.939h19.71a.943.943,0,0,0,.939-.939V38.681L31.4,42.092a.917.917,0,0,0,.664.275,1.037,1.037,0,0,0,.366-.069.929.929,0,0,0,.572-.87V29.41a.978.978,0,0,0-.572-.87.914.914,0,0,0-1.007.206L28.01,32.157V27.739a.963.963,0,0,0-.961-.939Zm-.939,7.623v7.783H8.254V28.654H26.11v5.769Zm5.013-2.747v7.531l-3.136-3.136V34.835Z" transform="translate(0 0)" /></g></svg>