<svg xmlns="http://www.w3.org/2000/svg" width="20" height="20.988" viewBox="0 0 20 20.988"><g transform="translate(-63.738 -144.237)"><g transform="translate(63.738 144.237)"><g transform="translate(0)"><path d="M222.688-490.828a5.578,5.578,0,0,0-.68,1c-1.539,2.589-1.5,2.507-1.419,2.583a9.718,9.718,0,0,0,1.055.615c.006-.011.468-.794,1.033-1.746.968-1.648,1.017-1.74.99-1.953A.67.67,0,0,0,222.688-490.828Z" transform="translate(-216.185 490.916)" /><path d="M300.69-444.8c-.136.065-.267.223-.468.555-.647,1.077-1.708,2.877-1.735,2.948a3.082,3.082,0,0,0,1.109.663c.022-.027.343-.566.712-1.191s.816-1.381.99-1.67a1.54,1.54,0,0,0,.316-.745.652.652,0,0,0-.479-.6C300.88-444.915,300.913-444.915,300.69-444.8Z" transform="translate(-289.874 447.396)" /><path d="M142.119-430.743a1.175,1.175,0,0,0-.707,1.088,1.233,1.233,0,0,0,.4.952l.234.245-.615,1.033a13.843,13.843,0,0,0-.729,1.354,3.789,3.789,0,0,0-.174,1.691,4.547,4.547,0,0,0,.821,2.012c.065.1.044.158-.207.538a2.872,2.872,0,0,0-.277.484.978.978,0,0,0,.239.272l.239.218-.212.277a7.17,7.17,0,0,0-.87,1.773,5.831,5.831,0,0,0-.082,2.213,4.291,4.291,0,0,0,3.464,3.421c1.55.272,3.372-.228,6.02-1.653a9.661,9.661,0,0,1,2.126-.984,7.721,7.721,0,0,1,2.752-.462,4.223,4.223,0,0,1,1.36.125,4.329,4.329,0,0,1,2.915,2.485c.19.424.364.565.68.565a.578.578,0,0,0,.6-.555.944.944,0,0,0-.141-.62,6.658,6.658,0,0,0-2.012-2.415,6.475,6.475,0,0,0-4.111-.925,10.045,10.045,0,0,0-4.215,1.321,25.96,25.96,0,0,1-2.855,1.37c-2.088.783-3.426.663-4.492-.4a2.932,2.932,0,0,1-.9-2.4,3.791,3.791,0,0,1,.794-2.077l.228-.3.245.152c.169.109.277.141.353.114a1.967,1.967,0,0,0,.419-.5,1.668,1.668,0,0,1,.37-.446,4.126,4.126,0,0,0,3.4-.642,5.293,5.293,0,0,0,1.4-1.816c.277-.479.533-.9.566-.935s.13-.044.359.016a1.269,1.269,0,0,0,1.436-.6,1.305,1.305,0,0,0-.261-1.457c-.092-.087-1.039-.674-2.1-1.305s-2.311-1.371-2.773-1.643-1.273-.756-1.795-1.066c-.941-.56-.952-.565-1.332-.582A1.457,1.457,0,0,0,142.119-430.743Zm4.231,3.709c-.549.647-1.4,1.7-1.4,1.741a3.381,3.381,0,0,0,.571.37,4.684,4.684,0,0,1,.571.354,3.172,3.172,0,0,1-.5.283c-.277.141-.984.511-1.566.821s-1.071.56-1.082.549a8.47,8.47,0,0,1,.625-.734,6.7,6.7,0,0,0,.941-1.1c-.011-.011-.261-.158-.555-.332l-.538-.31.239-.141c.479-.288,2.736-1.588,2.757-1.588S146.394-427.083,146.35-427.034Z" transform="translate(-140.113 434.083)" /></g></g></g></svg>