<svg xmlns="http://www.w3.org/2000/svg" width="20.409" height="21.453" viewBox="0 0 20.409 21.453"><g transform="translate(-206.58 -287.416)"><path d="M222.147,302.327c-.14.123-.322.207-.355.331a.6.6,0,0,0,.094.482,12.652,12.652,0,0,0,1.257,1.25.67.67,0,0,0,.631.046c.271-.18.172-.457-.043-.67-.395-.4-.787-.794-1.189-1.181A2.543,2.543,0,0,0,222.147,302.327Zm1.817-11.508c-.119-.139-.2-.324-.329-.361a.589.589,0,0,0-.483.091c-.431.386-.829.806-1.236,1.217-.209.211-.3.451-.058.689s.482.126.689-.081c.386-.386.775-.768,1.154-1.161A2.8,2.8,0,0,0,223.964,290.819Zm-12,12c-.121-.142-.2-.326-.331-.364a.589.589,0,0,0-.481.09c-.429.386-.827.808-1.236,1.217-.214.214-.3.454-.059.689s.479.132.69-.08c.384-.387.775-.768,1.154-1.16A2.7,2.7,0,0,0,211.969,302.817Zm-1.794-12.477c-.137.12-.318.205-.356.332a.591.591,0,0,0,.083.483c.383.43.8.828,1.211,1.234.21.208.45.3.687.056s.128-.48-.079-.687c-.384-.385-.765-.773-1.156-1.15A2.643,2.643,0,0,0,210.174,290.341Zm-1.84,6.691a3.679,3.679,0,0,0-.882.018c-.19.049-.336.27-.5.413.157.154.3.422.472.438a9.573,9.573,0,0,0,1.768,0c.169-.016.314-.283.471-.435-.164-.145-.307-.364-.495-.417A3.319,3.319,0,0,0,208.335,297.032Zm16.956.892a3.225,3.225,0,0,0,.832-.018c.19-.052.335-.269.5-.413-.155-.154-.3-.423-.466-.439a9.67,9.67,0,0,0-1.768,0c-.171.016-.318.282-.477.433.165.146.308.37.5.419A3.575,3.575,0,0,0,225.29,297.923Zm-8.02-8.893c0-.28,0-.56,0-.84,0-.313-.151-.56-.452-.507a.679.679,0,0,0-.42.482,8.546,8.546,0,0,0,0,1.677c.017.171.284.316.435.473.145-.165.359-.308.417-.5A2.844,2.844,0,0,0,217.27,289.03Z" transform="translate(0 -0.009)" /><path d="M210.151,304.834a.738.738,0,0,1-.686-.678.811.811,0,0,1,.279-.573q.162-.162.322-.326c.3-.3.6-.612.923-.9a.788.788,0,0,1,.513-.171.733.733,0,0,1,.2.027.715.715,0,0,1,.36.319c.031.045.061.087.092.123l.122.142-.1.157c-.031.047-.058.092-.083.135a1.529,1.529,0,0,1-.209.294c-.248.257-.5.512-.752.759q-.2.2-.4.4A.823.823,0,0,1,210.151,304.834Zm1.352-2.149a.344.344,0,0,0-.18.044c-.309.278-.61.583-.9.879q-.162.165-.325.328c-.12.12-.132.19-.132.215a.262.262,0,0,0,.186.182c.025,0,.1-.014.224-.142s.27-.27.4-.4c.246-.245.5-.5.746-.753a1.163,1.163,0,0,0,.14-.2h0l-.008-.011a.953.953,0,0,0-.1-.129A.281.281,0,0,0,211.5,302.686Zm12.015,2.059h0a.9.9,0,0,1-.536-.163,12.918,12.918,0,0,1-1.282-1.274.842.842,0,0,1-.149-.715.69.69,0,0,1,.309-.359c.044-.032.086-.062.122-.094l.141-.124.158.1c.047.03.093.057.138.082a1.417,1.417,0,0,1,.3.206c.321.309.641.63.95.941l.242.243a.8.8,0,0,1,.277.628.572.572,0,0,1-.273.427A.727.727,0,0,1,223.518,304.744Zm-1.487-2.01a.372.372,0,0,0,.041.238A12.462,12.462,0,0,0,223.3,304.2a.44.44,0,0,0,.214.046.305.305,0,0,0,.119-.018c.022-.014.049-.037.051-.059a.371.371,0,0,0-.133-.225l-.243-.244c-.307-.309-.625-.628-.943-.934a1.04,1.04,0,0,0-.2-.132l0,0-.013.01A1,1,0,0,0,222.031,302.735Zm3.767-4.542c-.091,0-.181-.005-.268-.01a4.307,4.307,0,0,0-.493,0c-.091,0-.185.01-.28.01a1.6,1.6,0,0,1-.411-.046,1.02,1.02,0,0,1-.469-.34c-.046-.05-.09-.1-.132-.134l-.2-.18.2-.188a1.791,1.791,0,0,0,.128-.144.8.8,0,0,1,.5-.357,9.969,9.969,0,0,1,1.815,0,.782.782,0,0,1,.5.365,1.78,1.78,0,0,0,.124.146l.19.189-.2.177c-.042.037-.085.082-.131.13a1.068,1.068,0,0,1-.467.335A1.443,1.443,0,0,1,225.8,298.192Zm-.507-.519c.091,0,.181.005.268.01s.163.009.24.009a.969.969,0,0,0,.258-.028.712.712,0,0,0,.226-.186,1.081,1.081,0,0,0-.162-.178,9.471,9.471,0,0,0-1.7,0,1.032,1.032,0,0,0-.168.177.705.705,0,0,0,.218.185,1.121,1.121,0,0,0,.286.03c.082,0,.165,0,.254-.009S225.2,297.673,225.29,297.673Zm-16.984.518c-.3,0-.608-.014-.908-.042a.79.79,0,0,1-.5-.363,1.808,1.808,0,0,0-.126-.145l-.195-.191.207-.177c.043-.037.087-.083.135-.133a1.034,1.034,0,0,1,.469-.332,1.633,1.633,0,0,1,.408-.044c.095,0,.189,0,.281.01s.173.009.255.009h.007c.076,0,.155,0,.239-.009s.177-.01.267-.01a1.439,1.439,0,0,1,.385.045,1.052,1.052,0,0,1,.464.338c.046.049.089.1.131.133l.2.178-.193.188a1.8,1.8,0,0,0-.126.145.79.79,0,0,1-.5.361C208.915,298.177,208.61,298.191,208.307,298.191Zm-.85-.539a9.371,9.371,0,0,0,1.7,0,1.056,1.056,0,0,0,.165-.177.711.711,0,0,0-.221-.187.961.961,0,0,0-.252-.027c-.076,0-.155,0-.239.009s-.177.01-.267.01h-.008c-.094,0-.189,0-.28-.01s-.173-.009-.254-.009a1.155,1.155,0,0,0-.285.029.705.705,0,0,0-.222.184A1.046,1.046,0,0,0,207.457,297.653Zm4.045-4.81h0a.814.814,0,0,1-.565-.275l-.238-.234c-.329-.324-.67-.658-.984-1.011a.835.835,0,0,1-.136-.72.721.721,0,0,1,.312-.358c.043-.031.084-.061.118-.091l.144-.126.159.106c.045.03.089.057.13.082a1.563,1.563,0,0,1,.3.216c.307.3.615.6.912.9l.246.247a.675.675,0,0,1,.082,1.037A.656.656,0,0,1,211.5,292.842Zm-1.446-2.09a.372.372,0,0,0,.033.239c.3.339.637.668.96.986l.239.236a.378.378,0,0,0,.213.13h0a.185.185,0,0,0,.119-.07c.069-.071.128-.133-.076-.337l-.247-.248c-.3-.3-.6-.6-.906-.9a1.146,1.146,0,0,0-.2-.143l0,0A.9.9,0,0,0,210.056,290.752Zm12.091,2.087h0a.737.737,0,0,1-.685-.676.814.814,0,0,1,.277-.574l.257-.262c.317-.323.644-.656.989-.966a.786.786,0,0,1,.515-.172.738.738,0,0,1,.2.027.706.706,0,0,1,.36.318c.031.044.06.086.09.12l.122.142-.1.157c-.031.047-.058.093-.085.138a1.529,1.529,0,0,1-.207.293c-.286.3-.581.59-.866.874l-.291.29A.825.825,0,0,1,222.147,292.84Zm1.353-2.149a.344.344,0,0,0-.18.044c-.334.3-.655.627-.966.944l-.259.263c-.12.121-.132.191-.132.216a.2.2,0,0,0,.07.117.185.185,0,0,0,.115.064c.031,0,.1-.018.224-.142l.292-.291c.284-.282.577-.574.859-.866a1.168,1.168,0,0,0,.137-.2l0-.005-.007-.01a.948.948,0,0,0-.1-.127A.279.279,0,0,0,223.5,290.69Zm-6.656-.006-.188-.195a1.777,1.777,0,0,0-.144-.126.8.8,0,0,1-.36-.5,8.774,8.774,0,0,1,0-1.726.917.917,0,0,1,.626-.7.591.591,0,0,1,.538.159.823.823,0,0,1,.208.6c0,.194,0,.392,0,.584q0,.127,0,.253c0,.073,0,.149.009.229a1.761,1.761,0,0,1-.039.63,1.106,1.106,0,0,1-.337.459c-.048.046-.094.09-.131.132Zm-.2-.876a1.017,1.017,0,0,0,.176.165.724.724,0,0,0,.189-.229,1.384,1.384,0,0,0,.018-.455c-.005-.085-.01-.172-.01-.26s0-.167,0-.25c0-.194,0-.394,0-.592a.349.349,0,0,0-.064-.239.073.073,0,0,0-.059-.022.208.208,0,0,0-.036,0,.507.507,0,0,0-.215.26A8.272,8.272,0,0,0,216.647,289.808Z" transform="translate(0 -0.009)" /><path d="M256.028,329.888a6.912,6.912,0,0,1-1.923,4.745,14.028,14.028,0,0,0-1.214,1.433,2.854,2.854,0,0,0-.416,1.226c-.068.637-.008,1.287-.021,1.93a1.288,1.288,0,0,1-1.268,1.315,1.489,1.489,0,0,0-.623.218,1.343,1.343,0,0,1-1.532-.009,1.477,1.477,0,0,0-.625-.21,1.278,1.278,0,0,1-1.253-1.278c-.026-.655.044-1.315-.024-1.964a2.67,2.67,0,0,0-.413-1.227c-.474-.671-1.068-1.256-1.583-1.9a6.544,6.544,0,0,1-.684-7.533,6.229,6.229,0,0,1,11.578,3.253Zm-4.5,6.629c.451-.62.83-1.171,1.242-1.7.367-.467.792-.888,1.154-1.358a5.572,5.572,0,0,0,1.12-4.706,5.34,5.34,0,0,0-6.171-4.2,5.426,5.426,0,0,0-4.421,5.761,6.654,6.654,0,0,0,1.782,3.827,6.59,6.59,0,0,1,1.688,2.376Zm-3.609,2.85c.239.133.4.292.558.3.874.026,1.75.031,2.622,0,.172-.006.337-.2.506-.305l-.065-.145c-.671,0-1.344-.009-2.015,0-.333.006-.641-.065-.647-.436-.007-.407.318-.47.668-.464.671.012,1.343,0,2.025,0v-.866h-3.616c.049.31,0,.667.153.844C248.565,338.818,248.591,338.9,247.922,339.367Z" transform="translate(-32.978 -32.371)" /><path d="M249.8,323.351a6.6,6.6,0,0,1,1.781.246,6.344,6.344,0,0,1,3.4,2.334,6.528,6.528,0,0,1,1.295,3.957,7.135,7.135,0,0,1-1.985,4.909c-.119.136-.242.27-.362.4a8.192,8.192,0,0,0-.832,1.006,2.6,2.6,0,0,0-.376,1.115,9.329,9.329,0,0,0-.025,1.2c0,.233.01.474.005.712a1.543,1.543,0,0,1-1.5,1.559,1.232,1.232,0,0,0-.514.182,1.693,1.693,0,0,1-.889.273,1.717,1.717,0,0,1-.907-.282,1.233,1.233,0,0,0-.515-.174,1.519,1.519,0,0,1-1.481-1.517c-.011-.276-.005-.554,0-.823a9.075,9.075,0,0,0-.023-1.125,2.421,2.421,0,0,0-.368-1.109,13.635,13.635,0,0,0-.919-1.12c-.218-.248-.444-.5-.655-.768a6.807,6.807,0,0,1-.7-7.819A6.465,6.465,0,0,1,249.8,323.351Zm.005,17.389a1.187,1.187,0,0,0,.627-.2,1.722,1.722,0,0,1,.732-.254,1.044,1.044,0,0,0,1.04-1.071c0-.228,0-.464-.005-.692a9.848,9.848,0,0,1,.027-1.26,3.116,3.116,0,0,1,.455-1.337,8.693,8.693,0,0,1,.881-1.069c.118-.128.239-.26.354-.392a6.661,6.661,0,0,0,1.861-4.577,5.928,5.928,0,0,0-4.33-5.812,6.1,6.1,0,0,0-1.646-.228,5.968,5.968,0,0,0-5.137,2.912,6.312,6.312,0,0,0,.666,7.248c.2.255.425.506.639.749a14.008,14.008,0,0,1,.952,1.163,2.955,2.955,0,0,1,.457,1.346,9.594,9.594,0,0,1,.025,1.187c-.005.261-.011.532,0,.793a1.034,1.034,0,0,0,1.025,1.038,1.733,1.733,0,0,1,.734.247A1.212,1.212,0,0,0,249.806,340.741Zm-.023-16.509h0a5.666,5.666,0,0,1,3.539,1.228,5.561,5.561,0,0,1,1.968,3.246,5.8,5.8,0,0,1-1.166,4.91c-.193.251-.4.488-.608.718-.184.208-.375.423-.547.642-.28.357-.548.731-.832,1.127-.13.181-.264.368-.4.561l-.075.1h-3.921l-.052-.18a4.809,4.809,0,0,0-1.254-1.861c-.126-.137-.257-.278-.382-.421a6.843,6.843,0,0,1-1.843-3.968,5.556,5.556,0,0,1,1.155-3.905,5.457,5.457,0,0,1,3.475-2.126A6.093,6.093,0,0,1,249.783,324.231Zm1.62,12.036c.113-.156.221-.307.327-.455.287-.4.558-.779.845-1.145.181-.231.377-.451.566-.665s.4-.454.586-.691a5.324,5.324,0,0,0,1.073-4.5,5.083,5.083,0,0,0-5.018-4.077h0a5.59,5.59,0,0,0-.87.069,5.18,5.18,0,0,0-4.211,5.49,6.368,6.368,0,0,0,1.721,3.687c.121.138.249.277.373.411a5.63,5.63,0,0,1,1.309,1.88Zm-3.738.937h4.158v1.366h-.25l-1.158,0c-.34,0-.617,0-.871-.007h-.037c-.223,0-.308.039-.34.072a.194.194,0,0,0-.035.139c0,.09,0,.191.36.191h.032c.249,0,.52-.007.85-.007.39,0,.78,0,1.17,0h.162l.22.49-.183.116a1.686,1.686,0,0,0-.137.1.864.864,0,0,1-.495.242c-.4.014-.828.021-1.263.021s-.889-.007-1.376-.021a.905.905,0,0,1-.472-.2c-.063-.042-.129-.086-.2-.126l-.349-.194.326-.229a1.947,1.947,0,0,0,.411-.345,1.713,1.713,0,0,0-.267-.354,1.093,1.093,0,0,1-.188-.69c0-.095-.01-.193-.024-.28Zm3.658.5h-3.093l0,.043a.912.912,0,0,0,.065.387,1.973,1.973,0,0,1,.346.475.612.612,0,0,1,.165-.322.961.961,0,0,1,.7-.221h.046c.252,0,.526.007.863.007l.908,0Zm-2.176,1.724a.623.623,0,0,1-.488-.441.9.9,0,0,1-.3.363.393.393,0,0,0,.125.063C248.715,339.42,248.934,339.425,249.147,339.429Z" transform="translate(-32.978 -32.371)" /><path d="M356.8,435.39a2.555,2.555,0,0,1,.395.257c.4.388.794.787,1.189,1.181.213.214.313.49.043.671a.671.671,0,0,1-.631-.046,12.683,12.683,0,0,1-1.257-1.25.6.6,0,0,1-.094-.482C356.481,435.6,356.662,435.513,356.8,435.39Z" transform="translate(-134.655 -133.072)" /><path d="M356.778,435.079l.158.1c.047.03.093.057.138.082a1.423,1.423,0,0,1,.3.206c.306.294.609.6.9.894l.289.29a.808.808,0,0,1,.277.63.571.571,0,0,1-.273.425.727.727,0,0,1-.395.1.9.9,0,0,1-.536-.163,12.954,12.954,0,0,1-1.282-1.274.842.842,0,0,1-.149-.715.7.7,0,0,1,.309-.359c.044-.032.086-.062.122-.094Zm1.395,2.229a.3.3,0,0,0,.119-.018c.021-.014.049-.037.051-.058a.376.376,0,0,0-.134-.227l-.289-.29c-.292-.293-.594-.6-.9-.888a1.047,1.047,0,0,0-.2-.132l0,0-.013.009a1,1,0,0,0-.122.1.38.38,0,0,0,.042.238,12.5,12.5,0,0,0,1.232,1.225A.442.442,0,0,0,358.173,437.307Z" transform="translate(-134.655 -133.072)" /><path d="M358.027,315.925a2.775,2.775,0,0,1-.263.395c-.378.393-.767.776-1.154,1.161-.208.207-.441.32-.689.081s-.152-.478.058-.689c.407-.411.805-.832,1.236-1.217a.59.59,0,0,1,.483-.091C357.824,315.6,357.907,315.786,358.027,315.925Z" transform="translate(-134.063 -25.116)" /><path d="M357.562,315.3a.737.737,0,0,1,.2.027.712.712,0,0,1,.357.316c.031.044.061.087.091.122l.123.143-.1.158c-.031.047-.058.093-.085.138a1.523,1.523,0,0,1-.207.293c-.321.333-.653.664-.975.983l-.182.181a.828.828,0,0,1-.578.288.738.738,0,0,1-.685-.675.814.814,0,0,1,.277-.574l.26-.264c.316-.322.643-.655.987-.963A.786.786,0,0,1,357.562,315.3Zm.055.5a.289.289,0,0,0-.055,0,.344.344,0,0,0-.181.044c-.333.3-.653.625-.964.941l-.262.266c-.121.122-.133.192-.133.216a.2.2,0,0,0,.071.117.186.186,0,0,0,.115.065c.03,0,.1-.019.225-.143l.182-.181c.32-.318.651-.646.967-.975a1.156,1.156,0,0,0,.138-.2l0,0-.008-.012A.951.951,0,0,0,357.617,315.8Z" transform="translate(-134.063 -25.116)" /><path d="M237.089,436.873a2.857,2.857,0,0,1-.263.393c-.379.393-.77.773-1.154,1.161-.21.212-.446.316-.69.08s-.155-.476.059-.689c.41-.409.806-.831,1.236-1.217a.585.585,0,0,1,.481-.09C236.885,436.547,236.968,436.731,237.089,436.873Z" transform="translate(-25.12 -134.065)" /><path d="M236.623,436.243a.724.724,0,0,1,.207.028.709.709,0,0,1,.359.318c.031.044.061.086.091.122l.122.143-.1.157c-.031.048-.059.095-.087.14a1.523,1.523,0,0,1-.2.288c-.238.247-.484.492-.722.729q-.217.216-.434.434a.82.82,0,0,1-.579.289.736.736,0,0,1-.686-.679.811.811,0,0,1,.278-.572c.113-.113.226-.227.338-.341.291-.3.592-.6.908-.885A.784.784,0,0,1,236.623,436.243Zm.056.505a.259.259,0,0,0-.056-.005.343.343,0,0,0-.179.044c-.3.273-.6.573-.885.864q-.17.173-.341.344a.375.375,0,0,0-.131.214.188.188,0,0,0,.07.119.185.185,0,0,0,.115.064c.025,0,.1-.014.223-.141q.217-.219.436-.437c.236-.235.48-.478.715-.721a1.161,1.161,0,0,0,.136-.2l0-.007-.007-.01A.946.946,0,0,0,236.679,436.748Z" transform="translate(-25.12 -134.065)" /><path d="M236.045,314.54a2.7,2.7,0,0,1,.366.249c.367.352.724.714,1.084,1.074.193.194.3.413.074.643s-.447.143-.645-.052c-.384-.379-.776-.751-1.135-1.153a.551.551,0,0,1-.078-.451C235.746,314.731,235.917,314.652,236.045,314.54Z" transform="translate(-25.893 -24.209)" /><path d="M236.024,314.226l.159.107c.043.029.087.055.128.081a1.476,1.476,0,0,1,.273.2c.3.283.589.578.873.863l.213.214a.646.646,0,0,1,.077.993.631.631,0,0,1-.46.214.78.78,0,0,1-.54-.261l-.22-.216c-.31-.3-.63-.617-.926-.948a.8.8,0,0,1-.132-.688.682.682,0,0,1,.3-.344c.04-.029.078-.056.11-.084Zm1.265,2.168a.172.172,0,0,0,.1-.061c.061-.063.108-.112-.072-.293l-.213-.214c-.282-.283-.574-.576-.867-.856a1.061,1.061,0,0,0-.179-.125.9.9,0,0,0-.11.087.341.341,0,0,0,.028.2c.284.318.6.626.9.923l.221.217C237.21,316.385,237.273,316.393,237.289,316.393Z" transform="translate(-25.893 -24.209)" /><path d="M208.335,381.834a3.227,3.227,0,0,1,.832.018c.189.053.332.272.495.417-.157.152-.3.42-.471.435a9.567,9.567,0,0,1-1.768,0c-.17-.016-.315-.286-.472-.438.166-.144.312-.364.5-.413A3.527,3.527,0,0,1,208.335,381.834Z" transform="translate(0 -84.811)" /><path d="M207.8,381.565c.1,0,.191.005.283.01s.169.009.249.009.155,0,.239-.009.177-.01.268-.01a1.445,1.445,0,0,1,.391.046,1.053,1.053,0,0,1,.465.34c.045.049.088.094.129.131l.2.179-.193.187a1.756,1.756,0,0,0-.126.145.787.787,0,0,1-.5.359,9.864,9.864,0,0,1-1.815,0,.788.788,0,0,1-.5-.362,1.769,1.769,0,0,0-.126-.146l-.195-.19.205-.178c.042-.036.086-.082.132-.131a1.043,1.043,0,0,1,.473-.335A1.605,1.605,0,0,1,207.8,381.565Zm.531.519c-.093,0-.186-.005-.275-.01s-.174-.009-.257-.009a1.129,1.129,0,0,0-.287.03.693.693,0,0,0-.224.184,1.061,1.061,0,0,0,.165.178,9.369,9.369,0,0,0,1.7,0,1.07,1.07,0,0,0,.165-.177.7.7,0,0,0-.221-.186.966.966,0,0,0-.258-.028c-.077,0-.156,0-.24.009S208.425,382.084,208.335,382.084Z" transform="translate(0 -84.811)" /><path d="M379.33,382.714a3.579,3.579,0,0,1-.882-.019c-.189-.05-.333-.273-.5-.419.159-.152.306-.418.477-.433a9.581,9.581,0,0,1,1.768,0c.168.016.311.286.466.439-.165.144-.31.36-.5.413A3.232,3.232,0,0,1,379.33,382.714Z" transform="translate(-154.039 -84.8)" /><path d="M379.837,382.983c-.091,0-.181-.005-.268-.01a4.288,4.288,0,0,0-.493,0c-.091,0-.185.01-.28.01a1.6,1.6,0,0,1-.411-.046,1.03,1.03,0,0,1-.469-.34c-.046-.049-.09-.1-.132-.133l-.2-.18.2-.188a1.8,1.8,0,0,0,.128-.144.8.8,0,0,1,.5-.357,9.874,9.874,0,0,1,1.815,0,.782.782,0,0,1,.495.365,1.784,1.784,0,0,0,.124.146l.191.189-.2.177c-.042.037-.085.082-.131.13a1.069,1.069,0,0,1-.467.335A1.451,1.451,0,0,1,379.837,382.983Zm-.507-.519c.091,0,.181.005.268.01s.163.009.24.009a.974.974,0,0,0,.259-.028.714.714,0,0,0,.225-.185,1.082,1.082,0,0,0-.162-.178,9.376,9.376,0,0,0-1.7,0,1.031,1.031,0,0,0-.168.176.7.7,0,0,0,.219.186,1.12,1.12,0,0,0,.284.03c.082,0,.165,0,.254-.009S379.235,382.464,379.33,382.464Z" transform="translate(-154.039 -84.8)" /><path d="M302.7,289.021a2.839,2.839,0,0,1-.018.786c-.058.19-.272.334-.417.5-.152-.157-.419-.3-.435-.473a8.375,8.375,0,0,1,0-1.677.679.679,0,0,1,.421-.482c.3-.054.456.193.452.507C302.7,288.461,302.7,288.742,302.7,289.021Z" transform="translate(-85.434 0)" /><path d="M302.278,290.674l-.188-.195a1.765,1.765,0,0,0-.144-.126.8.8,0,0,1-.36-.5,8.6,8.6,0,0,1,0-1.727.917.917,0,0,1,.626-.7.591.591,0,0,1,.538.159.823.823,0,0,1,.208.6c0,.178,0,.359,0,.534q0,.153,0,.3c0,.071,0,.146.009.225a1.783,1.783,0,0,1-.038.632,1.107,1.107,0,0,1-.337.46c-.048.046-.094.09-.131.132Zm-.2-.876a1.018,1.018,0,0,0,.176.165.724.724,0,0,0,.189-.229,1.407,1.407,0,0,0,.017-.457c-.005-.083-.01-.169-.01-.256s0-.2,0-.3c0-.177,0-.36,0-.541a.349.349,0,0,0-.064-.239.073.073,0,0,0-.059-.022.208.208,0,0,0-.036,0,.507.507,0,0,0-.215.261A8.1,8.1,0,0,0,302.082,289.8Z" transform="translate(-85.434 0)" /></g></svg>