<svg xmlns="http://www.w3.org/2000/svg" width="18.92" height="20.987" viewBox="0 0 18.92 20.987">
  <g id="_2.suultuur" data-name="2.suultuur" transform="translate(-58.26 -9.996)">
    <g id="Group_145" data-name="Group 145" transform="translate(58.26 9.996)">
      <path id="Path_103" data-name="Path 103" d="M72.4-500.915a2.107,2.107,0,0,0-.946.591,2.013,2.013,0,0,0-.517,1.089c-.034.2-.054,1.838-.054,4.519v4.2H58.26l.025.207c.015.118.039.335.054.483a5.271,5.271,0,0,0,3.849,4.371l.488.133,2.281.02,2.276.015-.025.182c-.015.1-.113,1.069-.222,2.153a13.565,13.565,0,0,0-.148,2.148.965.965,0,0,0,.537.645l.271.138h8.692l.261-.138a.938.938,0,0,0,.414-.379l.148-.236.015-9.047c.01-6.248,0-9.156-.039-9.392a2.842,2.842,0,0,0-.172-.606,2.4,2.4,0,0,0-.852-.912c-.458-.251-.7-.281-2.129-.276A5.708,5.708,0,0,0,72.4-500.915Zm2.341,2.144a1.666,1.666,0,0,1,.734.729,1.206,1.206,0,0,1,.113.68,1.321,1.321,0,0,1-.118.709,1.593,1.593,0,0,1-2.557.424,1.436,1.436,0,0,1-.444-1.01,1.388,1.388,0,0,1,.251-.99,1.5,1.5,0,0,1,1.4-.695A1.422,1.422,0,0,1,74.738-498.771Z" transform="translate(-58.26 501.004)" fill="#7b7b7b"/>
      <path id="Path_104" data-name="Path 104" d="M58.49-157.335v1.035H70.021v-2.07H58.49Z" transform="translate(-58.485 165.708)" fill="#7b7b7b"/>
    </g>
  </g>
</svg>
