<svg xmlns="http://www.w3.org/2000/svg" width="23.216" height="19" viewBox="0 0 23.216 19">
  <g id="Group_1386" data-name="Group 1386" transform="translate(-47 -49)">
    <path id="XMLID_101_" d="M24.505,13.9H9.068A1.635,1.635,0,0,1,7.5,12.2a1.635,1.635,0,0,1,1.568-1.7H24.505a1.635,1.635,0,0,1,1.568,1.7A1.635,1.635,0,0,1,24.505,13.9Zm1.568,5.886a1.635,1.635,0,0,0-1.568-1.7H9.068a1.706,1.706,0,0,0,0,3.4H24.505A1.635,1.635,0,0,0,26.073,19.786Zm0,7.586a1.635,1.635,0,0,0-1.568-1.7H9.068a1.706,1.706,0,0,0,0,3.4H24.505A1.635,1.635,0,0,0,26.073,27.373Z" transform="translate(44.143 38.5)" fill="#7b7b7b"/>
    <rect id="Rectangle_417" data-name="Rectangle 417" width="4" height="4" rx="1" transform="translate(47 49)" fill="#7b7b7b"/>
    <rect id="Rectangle_418" data-name="Rectangle 418" width="3.482" height="3.482" rx="1" transform="translate(47 56.545)" fill="#7b7b7b"/>
    <rect id="Rectangle_419" data-name="Rectangle 419" width="4" height="4" rx="1" transform="translate(47 64)" fill="#7b7b7b"/>
  </g>
</svg>
