<svg xmlns="http://www.w3.org/2000/svg" width="20.954" height="20.954" viewBox="0 0 20.954 20.954"><path d="M0,0V20.954H20.954V0ZM19.726,19.726H1.228V1.228h18.5Zm0,0" /><path d="M68.98,76.961A7.98,7.98,0,1,0,61,68.98,7.989,7.989,0,0,0,68.98,76.961ZM68.367,75.7v-1.2h1.228v1.2c-.2.018-.407.028-.614.028S68.569,75.723,68.367,75.7Zm1.228-13.449v1.2H68.367v-1.2c.2-.018.407-.028.614-.028S69.392,62.238,69.594,62.256Zm-2.455.227v2.2h3.683v-2.2a6.754,6.754,0,0,1,0,12.995v-2.2H67.139v2.2a6.754,6.754,0,0,1,0-12.995Zm0,0" transform="translate(-58.504 -58.504)" /><path d="M302.842,214.683A1.842,1.842,0,1,0,301,212.842,1.844,1.844,0,0,0,302.842,214.683Zm0-2.456a.614.614,0,1,1-.614.614A.615.615,0,0,1,302.842,212.228Zm0,0" transform="translate(-288.682 -202.365)" /><path d="M124.683,212.842a1.842,1.842,0,1,0-1.842,1.842A1.844,1.844,0,0,0,124.683,212.842Zm-2.455,0a.614.614,0,1,1,.614.614A.615.615,0,0,1,122.228,212.842Zm0,0" transform="translate(-116.048 -202.365)" /></svg>