<svg xmlns="http://www.w3.org/2000/svg" width="23.333" height="21" viewBox="0 0 23.333 21"><path d="M24.167,24h-21A1.167,1.167,0,0,1,2,22.833V14.068a1.167,1.167,0,0,1,.4-.88l4.266-3.72v-5.3A1.167,1.167,0,0,1,7.833,3H24.167a1.167,1.167,0,0,1,1.167,1.167V22.833A1.167,1.167,0,0,1,24.167,24Zm-14-2.333h3.5V14.6L9,10.53,4.333,14.6v7.068h3.5V17h2.333Zm5.833,0h7V5.333H9V7.815a1.16,1.16,0,0,1,.766.288L15.6,13.189a1.167,1.167,0,0,1,.4.88Zm2.333-9.333h2.333v2.333H18.333Zm0,4.667h2.333v2.333H18.333Zm0-9.333h2.333V10H18.333Zm-4.667,0H16V10H13.667Z" transform="translate(-2 -3)" /></svg>