<svg xmlns="http://www.w3.org/2000/svg" width="17.521" height="20.95" viewBox="0 0 17.521 20.95"><g transform="translate(-10 370.898)"><path d="M199.631-370.81a3.4,3.4,0,0,0-2.489,2.472,3.843,3.843,0,0,0-.023,1.414,4.219,4.219,0,0,0,.818,1.589c.2.24.292.392.292.508a.622.622,0,0,0,.134.333,2.966,2.966,0,0,1,.269.386,1.207,1.207,0,0,0,.234.275,6.341,6.341,0,0,0,1.356.175h.269l.088-.3.082-.3.427-.105a3.305,3.305,0,0,0,2.215-4.71,3.983,3.983,0,0,0-1.087-1.256l-.181-.1-.146.479c-.082.269-.286.982-.456,1.59a4.612,4.612,0,0,1-.391,1.134,4.185,4.185,0,0,1-1.157-.257c-.245-.07-.31-.117-.31-.21,0-.064.187-.789.409-1.613s.409-1.514.409-1.543C200.391-370.927,199.994-370.9,199.631-370.81Z" transform="translate(-176.133)" /><path d="M83.5-271.807a15.244,15.244,0,0,0-1.455,1.093c-2.273,1.846-2.8,2.174-3.769,2.308l-.281.035v7.182h.584a2.418,2.418,0,0,1,.8.088,20.458,20.458,0,0,0,3.483.713,18.58,18.58,0,0,0,3.4.45c.947.006,1.3-.082,1.589-.392a.564.564,0,0,0,.193-.649,1.361,1.361,0,0,0-.6-.625c-.123-.012.216-.1.4-.105a2.545,2.545,0,0,0,1.175-.432,1.165,1.165,0,0,0,.286-.374,1.236,1.236,0,0,0-.321-1.326.875.875,0,0,1-.181-.216c0-.023.105-.058.228-.082a1.468,1.468,0,0,0,.941-.7,1.118,1.118,0,0,0,.175-.742.967.967,0,0,0-.187-.73,1.476,1.476,0,0,0-.409-.4.692.692,0,0,1-.222-.152c0-.023.117-.082.251-.134a1.761,1.761,0,0,0,1.075-1.373,1.258,1.258,0,0,0-.269-.929c-.275-.374-.421-.415-1.823-.479-1.917-.094-2.168-.158-2.524-.684a3.215,3.215,0,0,0-1.765-1.332A1.043,1.043,0,0,0,83.5-271.807Z" transform="translate(-64.026 -93.235)" /><path d="M10.164-215.859,10-215.8l.006,3.6c0,1.981.018,3.711.041,3.839l.041.234,1.49.018c1.35.012,1.5.006,1.56-.088a30.069,30.069,0,0,0,.076-3.845V-215.8l-.146-.064A16.071,16.071,0,0,0,10.164-215.859Zm1.718,6.072a.609.609,0,0,1,.2.263.512.512,0,0,1-.473.725.474.474,0,0,1-.473-.327.4.4,0,0,1,0-.4.6.6,0,0,1,.193-.263A.658.658,0,0,1,11.882-209.788Z" transform="translate(0 -145.917)" /><path d="M145.466-64.807a1.91,1.91,0,0,0,.771,2.729,2.131,2.131,0,0,0,1.554.012,1.955,1.955,0,0,0,.912-.877,1.488,1.488,0,0,0,.164-.871c0-.4-.023-.561-.088-.619A22.629,22.629,0,0,0,145.8-65,.328.328,0,0,0,145.466-64.807Zm1.946.649a.508.508,0,0,1,.2.438.639.639,0,0,1-.982.538.644.644,0,0,1,.392-1.175A.521.521,0,0,1,147.412-64.159Z" transform="translate(-127.268 -288.022)" /></g></svg>