<svg xmlns="http://www.w3.org/2000/svg" width="24" height="20.776" viewBox="0 0 24 20.776"><g transform="translate(-1.5 -1.5)"><g transform="translate(2 2)"><path d="M.5-.5a1,1,0,0,1,1,1v16a1,1,0,0,1-2,0V.5A1,1,0,0,1,.5-.5Zm0,17V.5h0Z" transform="translate(22 0)" /><path d="M61.306,1.548a.5.5,0,0,1,.5.5V18.323a.5.5,0,0,1-.89.313A12.455,12.455,0,0,0,52,14.167a.5.5,0,0,1-.5-.5V6.755a.5.5,0,0,1,.5-.5,11.727,11.727,0,0,0,3.155-.576A11.842,11.842,0,0,0,60.913,1.74.5.5,0,0,1,61.306,1.548Zm-.5,15.467V3.376a13.013,13.013,0,0,1-5.385,3.267A13.527,13.527,0,0,1,52.5,7.23v5.963a13.562,13.562,0,0,1,2.9.58A13.2,13.2,0,0,1,60.806,17.015Z" transform="translate(-39.902 -1.571)" /><path d="M3-.5H7A3.5,3.5,0,0,1,10.5,3V6A3.5,3.5,0,0,1,7,9.5H3A3.5,3.5,0,0,1-.5,6V3A3.5,3.5,0,0,1,3-.5Zm4,9A2.5,2.5,0,0,0,9.5,6V3A2.5,2.5,0,0,0,7,.5H3A2.5,2.5,0,0,0,.5,3V6A2.5,2.5,0,0,0,3,8.5Z" transform="translate(3 4)" /><path d="M2.327,31.084H1.163A1.665,1.665,0,0,1-.5,29.42V26.164A1.665,1.665,0,0,1,1.163,24.5H2.327a.5.5,0,0,1,0,1H1.163a.664.664,0,0,0-.663.664V29.42a.664.664,0,0,0,.663.664H2.327a.5.5,0,0,1,0,1Z" transform="translate(0 -19.184)" /><path d="M25.851,28.5H20.5a.5.5,0,0,1,0-1h5.351a.5.5,0,0,1,0,1Z" transform="translate(-15.731 -21.486)" /><path d="M18,54.5h2.792a.5.5,0,0,1,.5.5v4.125a6.231,6.231,0,0,0,.938,1.366,1.158,1.158,0,0,1,.2,1.263,1.236,1.236,0,0,1-1.074.725H18.93a1.432,1.432,0,0,1-1.43-1.43V55A.5.5,0,0,1,18,54.5Zm2.292,1H18.5v5.549a.431.431,0,0,0,.43.43h2.426a.261.261,0,0,0,.166-.145c.013-.031.039-.089-.05-.191l0,0a4.556,4.556,0,0,1-1.176-1.993Z" transform="translate(-13.812 -42.204)" /></g></g></svg>