<svg xmlns="http://www.w3.org/2000/svg" width="22.261" height="21" viewBox="0 0 22.261 21"><g transform="translate(-10.002 -37.77)"><g transform="translate(10.002 37.77)"><path d="M11.257-444.6v.631H10.8c-.517,0-.674.052-.757.252a9,9,0,0,0-.039,1.5l.013,1.383.122.1c.113.1.157.1.618.1h.5l.017,4.923c.013,4.841.013,4.936.1,5.319a6.154,6.154,0,0,0,4.806,4.776c.4.091.465.091,5.941.1l5.532.017v.5c0,.461.009.5.1.618l.1.122,1.383.013a9.034,9.034,0,0,0,1.5-.039c.2-.083.252-.239.252-.757v-.457h1.261v-7.568H31v-.456c0-.509-.048-.665-.239-.752a8.442,8.442,0,0,0-1.44-.052c-1.731,0-1.67-.026-1.67.779v.483l-4.058-.009-4.062-.013-.213-.13a1.177,1.177,0,0,1-.344-.344l-.13-.213-.013-3.432-.009-3.427H19.3c.809,0,.783.061.783-1.67a8.446,8.446,0,0,0-.052-1.44c-.087-.191-.244-.239-.752-.239h-.457v-1.261H11.257Zm7.994,2.314.009.839H10.822v-1.7l4.21.009,4.206.013ZM30.167-429.26l.009,4.21h-1.7v-8.437l.839.009.835.013Z" transform="translate(-10.002 445.23)" /></g></g></svg>