<svg xmlns="http://www.w3.org/2000/svg" width="32.453" height="20.052" viewBox="0 0 32.453 20.052">
  <g id="Layer_x0020_1" transform="translate(0.171 -99.327)">
    <path id="Path_471" data-name="Path 471" d="M29.851,109.275a.439.439,0,0,1-.393-.243l-.437-.874a.437.437,0,0,1,.78-.393c.293.586.755,1.18.243,1.461A.36.36,0,0,1,29.851,109.275Zm-2.622,2.747a.441.441,0,0,1-.406-.268l-.458-1.114-.631.328.321.33a1.835,1.835,0,0,1-.987,3.05,1.813,1.813,0,0,1-2.365,2.46,1.837,1.837,0,0,1-3.169.946,1.806,1.806,0,0,1-3.036.823l-1.716-1.716-1.148,1.148a1.513,1.513,0,0,1-2.586-1.036,1.556,1.556,0,0,1-1.5-1.548,1.419,1.419,0,0,1-1.513-1.511,1.518,1.518,0,0,1-1.435-2.04l-1.07-.606c-.234.453-.482,1.3-1.031,1.017L.312,110.1a.44.44,0,0,1-.181-.593l5.056-9.426a.444.444,0,0,1,.6-.175l4,2.185a.445.445,0,0,1,.181.587L9.384,103.8l.929.464c1.063-1.906,2.721-2.641,4.38-1.735,1.512-1.091,2.519-.7,2.661-.637.4.175,3.521,1.548,4.251,1.879a13.458,13.458,0,0,0,1.587-.844l-.426-1.035a.444.444,0,0,1,.237-.574l4.182-1.685a.434.434,0,0,1,.562.231l4.245,9.738a.434.434,0,0,1-.231.574c-.518.214-4.333,1.848-4.532,1.848Zm-1.2-2.191-2.5-6.088c-1.655.963-1.885,1.019-2.173.875L17,102.69c-.789-.326-2.512.936-2.94,1.636l-.861,1.6c-.628,1.148,1.145,1.779,1.6.855.63-1.285.464-1.114,1.773-1.71a.443.443,0,0,1,.387.012c1.929,1.061,3.9,2.072,5.793,3.053a.006.006,0,0,1,.006.006,14.465,14.465,0,0,1,2.354,2.167l.925-.481Zm-2.287-7.866,3.72,9.051,3.552-1.473-3.9-8.945-3.377,1.367Zm.176,11.137c.3.089.322.393.8.4a.963.963,0,0,0,.693-1.623,25.631,25.631,0,0,0-3.071-2.971c-1.842-.949-3.745-1.935-5.618-2.959-.946.436-.693.253-1.149,1.2-.945,1.976-4.354.564-3.152-1.648l.893-1.654a4.5,4.5,0,0,1,.629-.707c-1.32-.474-2.343.393-3.058,1.887a.432.432,0,0,1-.581.2l-1.323-.662-3.058,5.919,1.194.676a2.026,2.026,0,0,1,1.527-.846,1.553,1.553,0,0,1,1.338.972,1.846,1.846,0,0,1,1.352-.722,1.5,1.5,0,0,1,1.477,1.269,1.508,1.508,0,0,1,1.665,2.247,1.548,1.548,0,0,1,.881,2.111l1.757,1.757c.911.911,2.2-.53,1.336-1.3l-1.779-1.829a.437.437,0,0,1,.624-.612l2.921,2.984a1.076,1.076,0,0,0,1.386.006,1,1,0,0,0-.04-1.364l-2.95-2.95a.437.437,0,0,1,.618-.618l3.558,3.558c.787.787,2.242-.386,1.311-1.317l-3.558-3.558a.437.437,0,0,1,.618-.618l2.76,2.76ZM17,102.684Zm-.006-.006ZM1.105,109.531l3.4,1.779,4.47-8.658-3.234-1.767-4.638,8.646Zm11.058,6.939c-.195.259-.408.585-.065.908a.609.609,0,0,0,.886.05c.317-.337,1.28-1.218,1.486-1.486a.586.586,0,0,0-.025-.861c-.333-.341-.631-.2-.948.055l-1.334,1.334Zm-2.124-2.109,1.766-1.833a.648.648,0,0,0-.949-.88L9,113.528a.79.79,0,0,0,.046.872.8.8,0,0,0,.993-.039Zm2.708-1.534c-.64.658-1.537,1.642-2.176,2.231-.537.5.331,1.443.934.84l2.122-2.122a.659.659,0,0,0,.012-.93A.706.706,0,0,0,12.747,112.827Zm-4.391.11c.38-.5,1.266-.891.633-1.565-.5-.534-1.092.256-1.423.587a.633.633,0,0,0,.791.978ZM2.322,109.4a.438.438,0,0,1-.375-.662c.321-.526.6-1.255,1.1-.955s-.048.912-.356,1.411a.437.437,0,0,1-.368.206Z" transform="translate(0)" fill="#7b7b7b" stroke="#7b7b7b" stroke-width="0.5" fill-rule="evenodd"/>
  </g>
</svg>
