<svg xmlns="http://www.w3.org/2000/svg" width="14.966" height="20.952" viewBox="0 0 14.966 20.952"><g transform="translate(-6 -2)"><path d="M13,25.29l1.646,2.17a.748.748,0,0,0,1.2,0l2.245-2.993a1.064,1.064,0,0,0,.15-.449V21.1Z" transform="translate(-1.762 -4.808)" /><path d="M12,22.408l5.986-4.789V15L12,19.789Z" transform="translate(-1.51 -3.272)" /><path d="M20.218,2H14.979a.707.707,0,0,0-.748.748v1.5h-1.5v-1.5A.707.707,0,0,0,11.986,2H6.748A.707.707,0,0,0,6,2.748,7.281,7.281,0,0,0,8.544,8.211L10.49,9.782v4.789l6.286-5.014h.075l1.571-1.347a7.281,7.281,0,0,0,2.544-5.463A.707.707,0,0,0,20.218,2Z" /></g></svg>