<svg xmlns="http://www.w3.org/2000/svg" width="20.75" height="20.75" viewBox="0 0 20.75 20.75"><g transform="translate(-10 -10)"><path d="M15.81,14.357V10h1.66a.415.415,0,0,1,.415.415v7.262a.415.415,0,0,1-.415.415h-2.7v8.335a2.709,2.709,0,0,0,.751,2.035,2.314,2.314,0,0,0,1.629.627,2.383,2.383,0,0,0,1.64-.654,2.685,2.685,0,0,0,.752-2.009V14.322a4.337,4.337,0,0,1,1.258-3.2A4.042,4.042,0,0,1,23.585,10a3.973,3.973,0,0,1,2.793,1.091,4.358,4.358,0,0,1,1.259,3.231v8.335h2.7a.415.415,0,0,1,.415.415v7.262a.415.415,0,0,1-.415.415h-1.66V26.392a.415.415,0,0,0-.415-.415H25.355a.415.415,0,0,0-.415.415V30.75H23.28a.415.415,0,0,1-.415-.415V23.072a.415.415,0,0,1,.415-.415h2.7V14.322a2.709,2.709,0,0,0-.751-2.035A2.313,2.313,0,0,0,23.6,11.66a2.383,2.383,0,0,0-1.64.654,2.685,2.685,0,0,0-.752,2.009V26.428a4.337,4.337,0,0,1-1.258,3.2,4.042,4.042,0,0,1-2.782,1.12,3.972,3.972,0,0,1-2.793-1.091,4.357,4.357,0,0,1-1.259-3.231V18.092h-2.7A.415.415,0,0,1,10,17.677V10.415A.415.415,0,0,1,10.415,10h1.66v4.357a.415.415,0,0,0,.415.415H15.4A.415.415,0,0,0,15.81,14.357Z" /><path d="M24,10h2.334v4.435H24Z" transform="translate(-10.732 0)" /><path d="M88.334,91v4.435H86V91Z" transform="translate(-60.852 -64.685)" /></g></svg>