<svg xmlns="http://www.w3.org/2000/svg" width="16.553" height="20.233" viewBox="0 0 16.553 20.233"><g transform="translate(-64 -21.31)"><path d="M79.633,27.748H67.678V25.909a2.759,2.759,0,0,1,2.759-2.759h3.679a2.759,2.759,0,0,1,2.39,1.379.92.92,0,0,0,1.592-.921,4.6,4.6,0,0,0-3.982-2.3H70.437a4.595,4.595,0,0,0-4.6,4.6v1.839h-.92a.919.919,0,0,0-.919.919v8.276a4.595,4.595,0,0,0,4.6,4.6h7.357a4.595,4.595,0,0,0,4.6-4.6V28.668A.919.919,0,0,0,79.633,27.748Zm-.92,9.2A2.759,2.759,0,0,1,75.955,39.7H68.6a2.759,2.759,0,0,1-2.759-2.759V29.587H78.714Z" transform="translate(0 0)" /><path d="M214.91,260.1a1.824,1.824,0,0,0,.332.241v2.112a.92.92,0,1,0,1.84,0V260.3a1.816,1.816,0,0,0,.367-.308,1.8,1.8,0,1,0-2.538.115Zm1.211-1.369h0Z" transform="translate(-143.845 -225.512)" /></g></svg>