<svg xmlns="http://www.w3.org/2000/svg" width="14.467" height="21" viewBox="0 0 14.467 21"><path d="M29.567,3.473A2.5,2.5,0,1,0,26.113,5.76c-.023.42-.28,3.033-3.943,4.363a8.511,8.511,0,0,0-3.593,2.263V5.76A2.4,2.4,0,0,0,20.07,3.473,2.51,2.51,0,0,0,17.573,1a2.455,2.455,0,0,0-2.45,2.473A2.48,2.48,0,0,0,16.71,5.76V17.24a2.5,2.5,0,0,0-1.61,2.287A2.47,2.47,0,0,0,17.55,22a2.515,2.515,0,0,0,2.52-2.473,2.417,2.417,0,0,0-1.517-2.287v-.747c0-.257.117-3.1,4.27-4.62C27.77,10.077,28,6.227,28,5.76A2.459,2.459,0,0,0,29.567,3.473ZM17.55,2.4a1.07,1.07,0,0,1,1.073,1.073A1.086,1.086,0,0,1,17.55,4.547a1.073,1.073,0,1,1,0-2.147Zm0,18.2a1.07,1.07,0,0,1-1.073-1.073,1.086,1.086,0,0,1,1.073-1.073,1.07,1.07,0,0,1,1.073,1.073A1.086,1.086,0,0,1,17.55,20.6ZM27.07,4.547A1.07,1.07,0,0,1,26,3.473,1.086,1.086,0,0,1,27.07,2.4a1.073,1.073,0,1,1,0,2.147Z" transform="translate(-15.1 -1)" /></svg>