<svg xmlns="http://www.w3.org/2000/svg" width="22.271" height="21" viewBox="0 0 22.271 21"><g transform="translate(-164 474)"><path d="M263.29-473.927a1.9,1.9,0,0,0-1.113,1.084,1.762,1.762,0,0,0-.139.74,1.3,1.3,0,0,0,.113.784,2.065,2.065,0,0,0,.678.876,1.9,1.9,0,0,0,1.444.194,2.384,2.384,0,0,0,.561-.339c.67-.518.387-.484,3.827-.5,2.027-.01,3.092,0,3.275.039a2.424,2.424,0,0,1,1.026.5,1.332,1.332,0,0,0,.791.368,1.736,1.736,0,0,0,1.935-1.311,2.219,2.219,0,0,0-.065-1.418,2.046,2.046,0,0,0-.7-.837,1.982,1.982,0,0,0-1.448-.135,3.19,3.19,0,0,0-.522.334,3.285,3.285,0,0,1-.518.339,5.547,5.547,0,0,1-1.822.179h-.839V-474h-1.74v.968h-.857c-1.331,0-1.7-.087-2.266-.523a4.227,4.227,0,0,0-.483-.315A1.953,1.953,0,0,0,263.29-473.927Z" transform="translate(-93.766 0)" /><path d="M248.871-393.055v1.95l-.348.107a4.206,4.206,0,0,0-1.961,1.36l-.291.348H242v5.758h4.288l.27.334a4.053,4.053,0,0,0,4.6,1.3,4.382,4.382,0,0,0,1.77-1.3l.27-.334.331,0a2.167,2.167,0,0,1,2.1,1.732,11.608,11.608,0,0,1,.07,2.119v1.853h5.18l-.017-2.264a13.644,13.644,0,0,0-.113-2.744,8.887,8.887,0,0,0-1.3-3.218,9.47,9.47,0,0,0-1.613-1.752,6.816,6.816,0,0,0-4.149-1.49h-.47l-.291-.348a4.206,4.206,0,0,0-1.961-1.36l-.348-.107V-395h-1.74Z" transform="translate(-74.608 -75.177)" /><path d="M164-349.489v6.711l.839-.019c.726-.015.861-.029,1.031-.116a1.18,1.18,0,0,0,.6-.639l.122-.276V-355.15l-.1-.247a1.285,1.285,0,0,0-.574-.658c-.183-.1-.252-.111-1.052-.126L164-356.2Z" transform="translate(0 -112.1)" /></g></svg>