<svg xmlns="http://www.w3.org/2000/svg" width="19.614" height="21" viewBox="0 0 19.614 21">
  <g id="icons" transform="translate(-0.792)">
    <path id="settings" d="M19.524,12.6l-1.05-.613a1.8,1.8,0,0,1,0-3.063l1.05-.613a1.663,1.663,0,0,0,.613-2.362l-.875-1.487A1.663,1.663,0,0,0,16.9,3.85l-1.05.612a1.746,1.746,0,0,1-2.625-1.487V1.75A1.755,1.755,0,0,0,11.474,0H9.724a1.755,1.755,0,0,0-1.75,1.75V2.887A1.746,1.746,0,0,1,5.349,4.375L4.3,3.85a1.7,1.7,0,0,0-2.362.612L1.062,5.95A1.908,1.908,0,0,0,1.674,8.4l1.05.613a1.723,1.723,0,0,1,0,2.975l-1.05.613a1.663,1.663,0,0,0-.612,2.363l.875,1.487a1.663,1.663,0,0,0,2.363.613l1.05-.525a1.746,1.746,0,0,1,2.625,1.488V19.25A1.755,1.755,0,0,0,9.724,21h1.75a1.755,1.755,0,0,0,1.75-1.75V18.112a1.746,1.746,0,0,1,2.625-1.488l1.05.613a1.7,1.7,0,0,0,2.363-.613l.875-1.488A2,2,0,0,0,19.524,12.6ZM10.6,14a3.5,3.5,0,1,1,3.5-3.5A3.51,3.51,0,0,1,10.6,14Z" transform="translate(0 0)" fill="#7b7b7b"/>
  </g>
</svg>
