<svg xmlns="http://www.w3.org/2000/svg" width="20.929" height="13.3" viewBox="0 0 20.929 13.3"><g transform="translate(-604.795 -114.176) rotate(90)"><path d="M118.167-625.689a.976.976,0,0,0-.666.876c-.01.11-.017.378-.017.592l0,.395h-1.01c-1.094,0-1.284.023-1.582.191a1.48,1.48,0,0,0-.686.953c-.023.117-.03,3.044-.027,8.489l.01,8.312.12.251a1.4,1.4,0,0,0,.93.783c.164.047.716.053,5.589.053s5.425-.007,5.589-.053a1.4,1.4,0,0,0,.93-.783l.12-.251.01-8.312c0-5.522,0-8.372-.027-8.492a1.43,1.43,0,0,0-.9-1.047c-.177-.07-.248-.077-1.291-.094l-1.1-.017,0-.572a1.671,1.671,0,0,0-.08-.739,1.025,1.025,0,0,0-.468-.485l-.151-.077-2.592-.007C118.926-625.726,118.24-625.719,118.167-625.689Zm8.131,2.88a.57.57,0,0,1,.167.167c.06.1.064.328.064,8.332,0,6.569-.01,8.241-.043,8.3a.756.756,0,0,1-.164.167l-.12.094h-10.75l-.12-.094a.756.756,0,0,1-.164-.167c-.033-.06-.043-1.726-.043-8.268,0-4.509.01-8.235.023-8.281a.515.515,0,0,1,.308-.294c.06-.02,2.321-.03,5.422-.027C126.024-622.873,126.2-622.87,126.3-622.809Z" transform="translate(0 0)" /><path d="M171-509.625v2.375h9.5V-512H171Z" transform="translate(-54.924 -109.92)" /><path d="M171.007-353.619l.01,2.385h9.466l.01-2.385L180.5-356H171Z" transform="translate(-54.924 -260.702)" /><path d="M171-196.625v2.375h9.5V-199H171Z" transform="translate(-54.924 -412.451)" /></g></svg>