<svg xmlns="http://www.w3.org/2000/svg" width="21" height="21" viewBox="0 0 21 21"><g transform="translate(6.193)"><path d="M151,0V6.152h2.461v1.23h3.691V6.152h2.461V0Zm7.383,4.922H152.23V1.23h6.152Z" transform="translate(-151)" /></g><g transform="translate(0 13.617)"><path d="M0,332v6.152H2.461v1.23H6.152v-1.23H8.613V332Zm7.383,4.922H1.23V333.23H7.383Z" transform="translate(0 -332)" /></g><g transform="translate(12.387 13.617)"><path d="M302,332v6.152h2.461v1.23h3.691v-1.23h2.461V332Zm7.383,4.922H303.23V333.23h6.152Z" transform="translate(-302 -332)" /></g><g transform="translate(3.691 8.613)"><path d="M97.424,211.271V210h-1.23v1.271H90v2.5h1.23V212.5h11.156v1.271h1.23v-2.5Z" transform="translate(-90 -210)" /></g></svg>