<svg xmlns="http://www.w3.org/2000/svg" width="24.24" height="20.941" viewBox="0 0 24.24 20.941"><g transform="translate(-10 -76.68)"><g transform="translate(10 76.68)"><path d="M12.481-366.293a1.97,1.97,0,0,0-.852.549,1.6,1.6,0,0,0-.4,1.278v.544H10v2.841h1.231v10.463H10v2.84h1.231v.544a1.965,1.965,0,0,0,.1.8,1.82,1.82,0,0,0,.81.885,1.043,1.043,0,0,0,.677.161,1.425,1.425,0,0,0,1.155-.521,1.556,1.556,0,0,0,.473-1.221c.033-.587.071-.649.407-.649.312,0,.374.1.4.682a1.65,1.65,0,0,0,.5,1.236,1.546,1.546,0,0,0,2.183.057,1.979,1.979,0,0,0,.35-.469,1.409,1.409,0,0,0,.185-.81c.024-.469.038-.525.142-.606a.489.489,0,0,1,.573,0c.08.08.095.156.095.464a1.731,1.731,0,0,0,.587,1.42,1.324,1.324,0,0,0,1.046.412,1.2,1.2,0,0,0,.606-.113,1.941,1.941,0,0,0,.838-.829,1.6,1.6,0,0,0,.175-.8c.033-.573.076-.644.4-.644s.383.1.417.691a1.777,1.777,0,0,0,.161.786,1.876,1.876,0,0,0,.8.781,1.084,1.084,0,0,0,.63.133,1.425,1.425,0,0,0,1.155-.521,1.556,1.556,0,0,0,.473-1.221c.033-.587.071-.649.407-.649.312,0,.374.1.4.682a1.649,1.649,0,0,0,.5,1.236,1.533,1.533,0,0,0,2.22.009,2.346,2.346,0,0,0,.346-.469,1.529,1.529,0,0,0,.147-.857l.019-.6h1.221v-.426H34.24v-1.989H31.825v-.426H30.594V-361.08h1.231v-1.231h.189c.175,0,.189.009.189.128a1.169,1.169,0,0,0,.876,1.075,1.044,1.044,0,0,0,1.046-.6c.1-.227.114-.3.114-1,0-.847-.043-1.008-.331-1.288a.927.927,0,0,0-1.435.08,1.219,1.219,0,0,0-.27.7c0,.085-.028.1-.189.1h-.189v-1.179l-.6-.014-.606-.014-.028-.407a1.385,1.385,0,0,0-.185-.7,1.7,1.7,0,0,0-.8-.758,1.511,1.511,0,0,0-1.24,0,1.845,1.845,0,0,0-.833.833,1.812,1.812,0,0,0-.152.758c-.019.445-.033.5-.137.582a.542.542,0,0,1-.554.024c-.076-.057-.095-.147-.118-.587a1.575,1.575,0,0,0-.5-1.255,1.443,1.443,0,0,0-1.127-.483,1.085,1.085,0,0,0-.63.133,1.877,1.877,0,0,0-.8.781,1.782,1.782,0,0,0-.161.786c-.033.592-.095.691-.417.691s-.365-.071-.4-.644a1.6,1.6,0,0,0-.175-.8,1.941,1.941,0,0,0-.838-.829,1.2,1.2,0,0,0-.606-.114,1.324,1.324,0,0,0-1.046.412,1.732,1.732,0,0,0-.587,1.42c0,.308-.014.383-.095.464a.489.489,0,0,1-.573,0c-.1-.08-.118-.137-.142-.606a1.554,1.554,0,0,0-.156-.762,1.573,1.573,0,0,0-2.561-.459,1.664,1.664,0,0,0-.5,1.245c-.019.445-.033.5-.137.582a.542.542,0,0,1-.554.024c-.076-.057-.095-.147-.118-.582a1.728,1.728,0,0,0-.156-.776,2.071,2.071,0,0,0-.866-.857A1.84,1.84,0,0,0,12.481-366.293Zm.828.89a1.048,1.048,0,0,1,.336.914,1.167,1.167,0,0,0,.123.653,1.2,1.2,0,0,0,1.155.705,1.069,1.069,0,0,0,.762-.369,1.277,1.277,0,0,0,.374-1.046c.028-.544.076-.658.35-.861a1.023,1.023,0,0,1,.909,0c.275.2.317.312.35.861a1.488,1.488,0,0,0,.17.767,1.374,1.374,0,0,0,.7.6,1.148,1.148,0,0,0,1.141-.27,1.236,1.236,0,0,0,.407-1.046c.038-.6.114-.772.426-.933a.884.884,0,0,1,.758-.029c.312.123.388.284.431.876a3.366,3.366,0,0,0,.109.672,1.375,1.375,0,0,0,1.117.791,1.344,1.344,0,0,0,1.155-.9,2.522,2.522,0,0,0,.076-.606c0-.455.09-.649.383-.8a.713.713,0,0,1,.488-.09c.521.047.739.351.739,1.027a1.167,1.167,0,0,0,.123.653,1.2,1.2,0,0,0,1.155.705,1.069,1.069,0,0,0,.762-.369,1.277,1.277,0,0,0,.374-1.046c.028-.544.076-.658.35-.861.1-.08.2-.1.454-.1a.686.686,0,0,1,.682.327l.1.128v18.407l-.1.128a.686.686,0,0,1-.682.327.66.66,0,0,1-.454-.1c-.275-.2-.322-.317-.355-.862a1.315,1.315,0,0,0-.3-.985,1.13,1.13,0,0,0-1.387-.322,1.255,1.255,0,0,0-.72,1.25c0,.677-.223.98-.739,1.027a.712.712,0,0,1-.488-.09c-.294-.152-.383-.346-.383-.8a1.338,1.338,0,0,0-.417-1.132,1.086,1.086,0,0,0-.843-.379,1.393,1.393,0,0,0-1.094.8,3.233,3.233,0,0,0-.1.677c-.038.582-.118.739-.431.867a.868.868,0,0,1-.758-.033c-.312-.156-.388-.327-.426-.928a1.267,1.267,0,0,0-.388-1.032,1.151,1.151,0,0,0-1.861.327,1.364,1.364,0,0,0-.166.758c-.028.544-.076.658-.35.862a1.023,1.023,0,0,1-.909,0c-.275-.2-.322-.317-.355-.862a1.315,1.315,0,0,0-.3-.985,1.167,1.167,0,0,0-1.984.275,1.167,1.167,0,0,0-.123.653c0,.677-.218.98-.739,1.027a.787.787,0,0,1-.786-.365c-.08-.156-.085-.549-.085-9.3s0-9.147.085-9.3a.787.787,0,0,1,.786-.365A.943.943,0,0,1,13.309-365.4Zm17.7,2.7-.014.8h-.379l-.014-.8-.009-.791h.426Zm2.415-.038a2.426,2.426,0,0,1-.043.791.216.216,0,0,1-.327-.024,7.041,7.041,0,0,1-.019-1.449c.024-.057.08-.071.2-.062l.17.014Zm-22.242.241v.615H10.8v-1.231h.379v.615Zm0,13.3v.615H10.8v-1.231h.379v.615ZM31-349.2v.592l-.2.014-.2.014v-.587a3.174,3.174,0,0,1,.033-.62.372.372,0,0,1,.2-.019l.166.014Zm2.438,0v.189h-1.61v-.379h1.61Z" transform="translate(-10 366.32)" /><path d="M157.9-203.7a1.374,1.374,0,0,0-.829.767c-.1.251-.1,11.021,0,11.272a1.351,1.351,0,0,0,.6.658,1.179,1.179,0,0,0,1.643-.639c.095-.208.1-.284.1-5.658s0-5.449-.1-5.658A1.237,1.237,0,0,0,157.9-203.7Zm.634.89c.076.095.08.426.08,5.511,0,5.255,0,5.411-.09,5.52a.465.465,0,0,1-.625,0c-.085-.109-.09-.265-.09-5.506,0-3.726.014-5.421.052-5.487A.457.457,0,0,1,158.535-202.815Z" transform="translate(-153.36 207.775)" /><path d="M321.953-203.513a1.522,1.522,0,0,0-.833.715c-.085.161-.09.4-.09,5.7v5.539l.1.189a1.757,1.757,0,0,0,.63.62,1.193,1.193,0,0,0,.928-.014,1.27,1.27,0,0,0,.606-.592l.123-.246V-202.59l-.123-.246a1.21,1.21,0,0,0-.6-.582A1.21,1.21,0,0,0,321.953-203.513Zm.54.862.123.095v10.927l-.128.1a.357.357,0,0,1-.317.08c-.365-.052-.336.445-.35-5.567,0-3.5,0-5.435.038-5.516A.417.417,0,0,1,322.493-202.652Z" transform="translate(-313.337 207.565)" /><path d="M484.606-203.849a1.416,1.416,0,0,0-.748.658l-.128.241v10.984l.128.241a1.365,1.365,0,0,0,.767.658.783.783,0,0,0,.644,0,1.14,1.14,0,0,0,.5-.322c.426-.431.4,0,.4-6.065s.028-5.638-.393-6.06a1.35,1.35,0,0,0-.478-.322A.918.918,0,0,0,484.606-203.849Zm.535.776a.361.361,0,0,1,.17.2c.071.208.076,10.614,0,10.823a.43.43,0,0,1-.719.09c-.019-.028-.038-2.5-.038-5.5s.019-5.468.038-5.5A.464.464,0,0,1,485.141-203.073Z" transform="translate(-472.012 207.929)" /><path d="M647.9-203.7a1.374,1.374,0,0,0-.829.767c-.1.251-.1,11.021,0,11.272a1.351,1.351,0,0,0,.6.658,1.179,1.179,0,0,0,1.643-.639c.095-.208.1-.284.1-5.658s0-5.449-.1-5.658A1.236,1.236,0,0,0,647.9-203.7Zm.63.885c.08.1.085.421.085,5.516,0,5.255,0,5.411-.09,5.52a.464.464,0,0,1-.625,0c-.085-.109-.09-.265-.09-5.53v-5.416l.123-.123a.286.286,0,0,1,.317-.095A.455.455,0,0,1,648.53-202.819Z" transform="translate(-631.24 207.775)" /></g></g></svg>