<svg xmlns="http://www.w3.org/2000/svg" width="18.633" height="20.866" viewBox="0 0 18.633 20.866"><g transform="translate(-48 480)"><path d="M54.829-479.925a1.206,1.206,0,0,0-.475.317c-.382.382-.391.447-.391,2.3v1.556l-.116.112a.363.363,0,0,1-.256.116.363.363,0,0,1-.256-.116l-.116-.112v-1.216c0-.666-.009-1.211-.023-1.211a8.166,8.166,0,0,0-.932.582,9.051,9.051,0,0,0-1.425,1.3,8.534,8.534,0,0,0-2.05,4.845l-.056.606-.368.377-.363.382v.88c0,.987.014,1.048.317,1.132a34.716,34.716,0,0,0,5.413.661c1.272.079,5.958.079,7.2,0a35.1,35.1,0,0,0,5.39-.661c.3-.084.317-.144.317-1.132v-.88l-.368-.382-.363-.377-.056-.582a8.4,8.4,0,0,0-1.085-3.512,8.807,8.807,0,0,0-2.967-3.046,3.711,3.711,0,0,0-.354-.2c-.014,0-.023.545-.023,1.211v1.216l-.116.112a.363.363,0,0,1-.256.116.363.363,0,0,1-.256-.116l-.116-.112v-1.556c0-1.849-.009-1.914-.391-2.3-.354-.354-.517-.391-1.668-.391h-.922v4.989l-.116.112a.363.363,0,0,1-.256.116.363.363,0,0,1-.256-.116l-.116-.112V-480L56-480A4.962,4.962,0,0,0,54.829-479.925Zm8.706,8.986a.342.342,0,0,1,0,.512l-.112.116H51.209l-.112-.116a.363.363,0,0,1-.116-.256.363.363,0,0,1,.116-.256l.112-.116H63.423Z" transform="translate(0)" /><path d="M50.809-191.87a2.291,2.291,0,0,0-1.435,1.151,2.716,2.716,0,0,0-.191.484l-.028.158h-.466c-.429,0-.47.009-.573.116l-.116.112v2.525l.116.112c.1.107.144.116.573.116h.461l.033.219a3.04,3.04,0,0,0,.517,1.155,3.032,3.032,0,0,0,1.793,1.169,16.939,16.939,0,0,0,3.377-.047,3.5,3.5,0,0,0,2.213-2.031,3.859,3.859,0,0,0,.168-.494c.037-.21.093-.2.135.014a3.728,3.728,0,0,0,1.756,2.264c.624.307.75.326,2.273.345a8.258,8.258,0,0,0,1.719-.051,3.008,3.008,0,0,0,2.292-2.255l.061-.289h.457c.429,0,.47-.009.573-.116l.116-.112v-2.525l-.116-.112c-.1-.107-.144-.116-.573-.116h-.466l-.028-.158a2.431,2.431,0,0,0-1.137-1.444c-.54-.275-.219-.261-7.02-.256C52.076-191.935,51.009-191.921,50.809-191.87Zm12.871,1.542a1.269,1.269,0,0,1,.224.224c.093.121.1.186.1,1.579v1.453l-.126.238a1.356,1.356,0,0,1-.652.675L62.93-186l-1.211.014c-1.314.019-1.57-.009-1.947-.214a2.138,2.138,0,0,1-.969-1.43,1.566,1.566,0,0,0-.857-1.188,1.678,1.678,0,0,0-1.258,0,1.566,1.566,0,0,0-.857,1.188,2.138,2.138,0,0,1-.969,1.43c-.382.2-.634.233-1.947.214-1.179-.014-1.216-.019-1.444-.13a1.639,1.639,0,0,1-.722-.722c-.116-.228-.116-.256-.13-1.561-.009-.731,0-1.393.014-1.477a.806.806,0,0,1,.419-.508c.116-.051,1.253-.061,6.321-.051C63.535-190.426,63.554-190.426,63.68-190.328Z" transform="translate(0 -274.644)" /></g></svg>