<svg xmlns="http://www.w3.org/2000/svg" width="30" height="21" viewBox="0 0 30 21"><g transform="translate(-443 -175)"><path d="M10,1a9,9,0,0,0,0,18h9V10a9.01,9.01,0,0,0-9-9m0-1A10,10,0,0,1,20,10V20H10A10,10,0,0,1,10,0Z" transform="translate(443 175)" /><path d="M5.5,1A4.5,4.5,0,1,0,10,5.5,4.505,4.505,0,0,0,5.5,1m0-1A5.5,5.5,0,1,1,0,5.5,5.5,5.5,0,0,1,5.5,0Z" transform="translate(447 180)" /><rect width="12" height="7" transform="translate(461 188)" /><path d="M1,1V6H11V1H1M0,0H12V7H0Z" transform="translate(461 188)" /><path d="M14591.547-14603.868h-1v-1.8h1Z" transform="translate(-14126.06 14798.012)" /><path d="M14591.547-14603.868h-1v-1.8h1Z" transform="translate(-14122.807 14798.012)" /><path d="M14604-14601.668h-1v-2.163h1Z" transform="translate(-14131.642 14797.668)" /></g></svg>