<svg xmlns="http://www.w3.org/2000/svg" width="21" height="21" viewBox="0 0 21 21">
  <g id="Image" transform="translate(-2 -2)">
    <path id="Path_512" data-name="Path 512" d="M19.25,2H5.75A3.75,3.75,0,0,0,2,5.75v13.5A3.75,3.75,0,0,0,5.75,23h13.5A3.75,3.75,0,0,0,23,19.25V5.75A3.75,3.75,0,0,0,19.25,2ZM5.75,3.5h13.5A2.25,2.25,0,0,1,21.5,5.75V9.942l-1.41-1.41a2.25,2.25,0,0,0-3.18,0l-5.963,6L8.7,12.717a2.25,2.25,0,0,0-2.85,0L3.5,14.645V5.75A2.25,2.25,0,0,1,5.75,3.5Zm13.5,18H5.75A2.25,2.25,0,0,1,3.5,19.25V16.6l3.285-2.745a.75.75,0,0,1,.952,0l2.8,2.25a.75.75,0,0,0,1-.052l6.435-6.443a.75.75,0,0,1,1.065,0L21.5,12.057V19.25a2.25,2.25,0,0,1-2.25,2.25Z" fill="#7b7b7b"/>
    <path id="Path_513" data-name="Path 513" d="M9.25,11.5A2.25,2.25,0,1,0,7,9.25,2.25,2.25,0,0,0,9.25,11.5Zm0-3a.75.75,0,1,1-.75.75A.75.75,0,0,1,9.25,8.5Z" transform="translate(-1.25 -1.25)" fill="#7b7b7b"/>
  </g>
</svg>
