<svg xmlns="http://www.w3.org/2000/svg" width="30.9" height="14.039" viewBox="0 0 30.9 14.039"><g transform="translate(-9.855 -279.855)"><g transform="translate(10.005 280.005)"><path d="M37.8-230.881c-.221.214-.085.456.256.456.185,0,.2.021.2.278v.278l-1.039-.456a9.49,9.49,0,0,0-1.174-.456c-.185,0-.64.626-.619.854.014.135.071.185.206.2s.221-.028.342-.228l.156-.249.406.178c.221.1.491.214.605.256l.192.071v1.48H24.051c-12.049,0-13.3.007-13.522.114a1.006,1.006,0,0,0,0,1.765,2.085,2.085,0,0,0,.783.114,2.005,2.005,0,0,1,.541.036c0,.206,1.338,5.2,1.488,5.573a4.938,4.938,0,0,0,1.11,1.68l.37.356-.242.427c-.27.477-.27.683.014.812.37.171.484.114.74-.363.135-.242.249-.448.249-.456a2.988,2.988,0,0,1,.4.092c.576.15,18.07.15,18.647,0a3.011,3.011,0,0,1,.4-.092c0,.007.114.214.249.456.256.477.37.534.733.363.285-.128.292-.3.021-.8l-.249-.47.235-.178a5.727,5.727,0,0,0,1.381-2.128c.064-.171,1.359-5.188,1.359-5.274a2.71,2.71,0,0,1,.541-.028c.876,0,1.31-.328,1.31-1s-.434-1-1.274-1h-.505v-1.317c0-1.224-.007-1.317-.135-1.388A1.115,1.115,0,0,0,37.8-230.881Zm.278,1.537c.164.078.178.114.178.6v.52h-.427v-.6a2.5,2.5,0,0,1,.036-.605A1.085,1.085,0,0,1,38.078-229.344Zm1.851,1.794a.468.468,0,0,1,0,.655c-.2.15-29.052.15-29.252,0a.411.411,0,0,1-.128-.327.411.411,0,0,1,.128-.328C10.877-227.7,39.729-227.7,39.929-227.551Zm-1.744,1.374c0,.107-1.21,4.775-1.31,5.06A4.239,4.239,0,0,1,35-218.768l-.413.192H16.015l-.413-.192a4.358,4.358,0,0,1-2-2.762c-.157-.534-1.182-4.562-1.182-4.662,0-.021,5.8-.036,12.882-.036S38.185-226.205,38.185-226.177Z" transform="translate(-10.005 230.995)" /><path d="M38.292-231.145a1.089,1.089,0,0,1,.469.09c.214.119.214.252.214,1.52v1.167h.355c1.239,0,1.424.718,1.424,1.146,0,.523-.253,1.146-1.46,1.146-.191,0-.333.006-.417.011-.05.219-.2.818-.635,2.51-.244.946-.668,2.575-.708,2.684a5.851,5.851,0,0,1-1.431,2.195l-.133.1.189.357c.168.314.259.547.194.738a.491.491,0,0,1-.286.273.838.838,0,0,1-.353.1c-.268,0-.412-.23-.574-.53-.1-.176-.16-.287-.2-.359-.061.014-.152.037-.277.07-.439.114-8.45.117-9.362.117s-8.923,0-9.361-.117c-.126-.034-.218-.056-.278-.071-.039.073-.1.185-.2.362-.16.3-.305.527-.575.527a.867.867,0,0,1-.359-.1.475.475,0,0,1-.282-.28c-.057-.175,0-.39.2-.741l.185-.326-.286-.275a5.079,5.079,0,0,1-1.145-1.73c-.1-.25-1.31-4.66-1.479-5.5-.082-.006-.222-.012-.41-.012a2.215,2.215,0,0,1-.845-.127,1.107,1.107,0,0,1-.611-1.02,1.105,1.105,0,0,1,.608-1.017c.251-.121,1.013-.129,13.587-.129h13.13V-229.6l-.094-.035c-.125-.047-.4-.163-.615-.26l-.286-.125-.088.14c-.115.19-.221.3-.42.3-.02,0-.041,0-.063,0a.34.34,0,0,1-.341-.333,1.408,1.408,0,0,1,.4-.789.559.559,0,0,1,.368-.231,8.847,8.847,0,0,1,1.234.468l.83.364v-.048c0-.027,0-.087,0-.127h-.046a.492.492,0,0,1-.489-.264.41.41,0,0,1,.128-.449A.991.991,0,0,1,38.292-231.145Zm.338.36-.012-.007a.778.778,0,0,0-.326-.053.782.782,0,0,0-.385.07c-.049.048-.072.094-.06.123s.087.077.211.077c.326,0,.349.162.349.428v.507l-1.249-.548c-.622-.269-1.016-.416-1.112-.441a1.418,1.418,0,0,0-.472.688.122.122,0,0,0,.012.051.214.214,0,0,0,.06.013l.033,0c.04,0,.069,0,.165-.158l.226-.361.524.23c.229.1.493.214.6.253l.289.107v1.735H24.051c-11.419,0-13.267.007-13.457.1a.808.808,0,0,0-.439.747.809.809,0,0,0,.438.748,1.979,1.979,0,0,0,.718.1c.15,0,.29,0,.392.01.132.008.3.019.3.171.028.284,1.334,5.169,1.477,5.52a4.777,4.777,0,0,0,1.075,1.627l.454.437-.3.528c-.143.252-.2.42-.176.5,0,.013.018.054.121.1a.641.641,0,0,0,.235.075c.071,0,.145-.061.312-.372.153-.274.21-.379.231-.419v-.027l.088-.088h.066a2.2,2.2,0,0,1,.433.1c.258.062,4.163.107,9.285.107s9.027-.045,9.286-.107a2.2,2.2,0,0,1,.432-.1h.064l.09.091v.026c.021.04.078.144.23.417.168.313.241.374.311.374a.613.613,0,0,0,.228-.074c.112-.05.124-.086.128-.1.036-.106-.123-.4-.175-.5l-.309-.583.337-.255a5.623,5.623,0,0,0,1.332-2.063c.068-.192,1.3-4.977,1.349-5.232.008-.141.157-.149.3-.156.107-.006.246-.009.391-.009,1.039,0,1.16-.483,1.16-.846,0-.57-.368-.846-1.124-.846h-.655v-1.467a6.5,6.5,0,0,0-.046-1.25S38.629-230.785,38.629-230.785Zm-.765,1.206a1.06,1.06,0,0,1,.281.1c.25.12.261.252.261.739v.67h-.727v-.755c0-.168,0-.323.01-.437C37.7-229.418,37.707-229.58,37.865-229.58Zm.242,1.21v-.37c0-.425,0-.427-.093-.47l-.026-.013c0,.095-.008.229-.008.4v.455Zm-12.8.557c3.8,0,7.353.01,10,.028,4.605.031,4.654.068,4.716.114a.545.545,0,0,1,.194.447.545.545,0,0,1-.2.449c-.059.044-.108.081-4.713.112-2.647.018-6.2.028-10,.028s-7.353-.01-10-.028c-4.605-.031-4.654-.068-4.716-.114a.554.554,0,0,1-.188-.447.555.555,0,0,1,.19-.449c.06-.045.108-.081,4.714-.113C17.95-227.8,21.5-227.813,25.3-227.813Zm14.557.4c-.536-.059-6.582-.1-14.557-.1s-14,.042-14.554.1a.325.325,0,0,0-.05.189.327.327,0,0,0,.049.188c.549.059,6.59.1,14.555.1s14.015-.042,14.556-.1a.312.312,0,0,0,.054-.188A.314.314,0,0,0,39.86-227.411ZM25.3-226.377c3.457,0,6.689.005,9.1.014,1.188,0,2.119.01,2.768.016.331,0,.584.006.755.01l.2.005c.063,0,.211.008.211.155,0,.024,0,.1-.622,2.5-.308,1.188-.642,2.455-.7,2.609a4.4,4.4,0,0,1-1.95,2.435l-.443.206H15.982l-.443-.206a4.483,4.483,0,0,1-2.08-2.854c-.081-.275-1.188-4.542-1.188-4.705,0-.148.149-.152.213-.154l.2,0,.755-.007c.645,0,1.577-.008,2.769-.011C18.577-226.373,21.807-226.377,25.3-226.377Zm12.7.341c-.99-.023-6.283-.041-12.7-.041-6.525,0-11.713.012-12.7.029.179.768,1,3.983,1.142,4.476a4.193,4.193,0,0,0,1.92,2.668l.382.178H34.558l.383-.178a4.089,4.089,0,0,0,1.794-2.263C36.818-221.407,37.8-225.2,38-226.036Z" transform="translate(-10.005 230.995)" /><path d="M124.157-50.422c-.128.05-.114.327.05.94.164.634.349.8.569.534.078-.085.071-.206-.028-.655C124.57-50.372,124.442-50.543,124.157-50.422Z" transform="translate(-120.51 56.094)" /><path d="M124.3-50.607c.34,0,.464.42.591.97.1.454.127.641,0,.787a.405.405,0,0,1-.305.176c-.285,0-.424-.389-.523-.77-.173-.646-.218-1.016.041-1.117A.513.513,0,0,1,124.3-50.607Zm.283,1.631a.227.227,0,0,0,.074-.067l.006-.007c.034-.037,0-.227-.064-.521-.042-.181-.171-.736-.3-.736a.213.213,0,0,0-.074.018,1.842,1.842,0,0,0,.124.768C124.47-49.066,124.568-48.987,124.586-48.976Z" transform="translate(-120.51 56.094)" /><path d="M142.437,22.291c-.256.1.1,1.3.69,2.32.541.954.84,1.217,1.068.94.107-.128.057-.249-.285-.712a9.045,9.045,0,0,1-.961-1.993C142.786,22.27,142.7,22.177,142.437,22.291Z" transform="translate(-138.22 -14.341)" /><path d="M142.6,22.1h0c.274,0,.374.28.5.707a8.953,8.953,0,0,0,.937,1.945c.317.429.473.664.279.9a.383.383,0,0,1-.3.158c-.272,0-.556-.314-1.013-1.12a4.481,4.481,0,0,1-.766-2.367.263.263,0,0,1,.149-.166A.546.546,0,0,1,142.6,22.1Zm1.412,3.407c.024,0,.051-.027.069-.05s.028-.1-.289-.527a9.2,9.2,0,0,1-.984-2.041c-.115-.4-.176-.489-.207-.489a.254.254,0,0,0-.087.024,4.608,4.608,0,0,0,.746,2.114C143.736,25.38,143.934,25.505,144.01,25.505Z" transform="translate(-138.22 -14.341)" /></g></g></svg>