<svg xmlns="http://www.w3.org/2000/svg" width="22.449" height="22.449" viewBox="0 0 22.449 22.449"><g transform="translate(-2.25 -2.25)"><g transform="translate(3 3)"><path d="M9.446,6.973H4.611A2.364,2.364,0,0,1,2.25,4.611V3A.75.75,0,0,1,3,2.25h8.057a.75.75,0,0,1,.75.75V4.611A2.364,2.364,0,0,1,9.446,6.973ZM3.75,3.75v.861a.862.862,0,0,0,.861.861H9.446a.862.862,0,0,0,.861-.861V3.75Z" transform="translate(-3 -3)" /><path d="M14.806,11.25h1.611a1.5,1.5,0,0,1,1.556,1.556V17.64A1.5,1.5,0,0,1,16.417,19.2H14.806A1.5,1.5,0,0,1,13.25,17.64V12.806A1.5,1.5,0,0,1,14.806,11.25Zm1.662,1.5a.225.225,0,0,0-.051,0H14.806a.225.225,0,0,0-.051,0,.226.226,0,0,0,0,.051V17.64a.226.226,0,0,0,0,.051.226.226,0,0,0,.051,0h1.611a.226.226,0,0,0,.051,0,.225.225,0,0,0,0-.051V12.806A.225.225,0,0,0,16.468,12.755Z" transform="translate(-5.137 -4.748)" /><path d="M27.057,28.973H19a.75.75,0,0,1-.75-.75V26.611a2.364,2.364,0,0,1,2.361-2.361h4.834a2.364,2.364,0,0,1,2.361,2.361v1.611A.75.75,0,0,1,27.057,28.973Zm-7.307-1.5h6.557v-.861a.862.862,0,0,0-.861-.861H20.611a.862.862,0,0,0-.861.861Z" transform="translate(-6.108 -7.274)" /><path d="M12.252,17.419H9.834A5.591,5.591,0,0,1,4.25,11.834V7A.75.75,0,0,1,5,6.25H9.834a.75.75,0,0,1,.75.75v3.868a.234.234,0,0,0,.217.217h1.45a.75.75,0,0,1,0,1.5H10.8a1.719,1.719,0,0,1-1.717-1.717V7.75H5.75v4.084a4.089,4.089,0,0,0,4.084,4.084h2.417a.75.75,0,0,1,0,1.5Z" transform="translate(-3.389 -3.777)" /><path d="M25.252,23.419H20.417a.75.75,0,0,1-.75-.75V18.8a.234.234,0,0,0-.217-.217H18a.75.75,0,0,1,0-1.5h1.45A1.719,1.719,0,0,1,21.167,18.8v3.118H24.5V17.834a4.089,4.089,0,0,0-4.084-4.084H18a.75.75,0,0,1,0-1.5h2.417A5.591,5.591,0,0,1,26,17.834v4.834A.75.75,0,0,1,25.252,23.419Z" transform="translate(-5.914 -4.943)" /></g></g></svg>