<svg xmlns="http://www.w3.org/2000/svg" width="21.04" height="21.04" viewBox="0 0 21.04 21.04"><path d="M35.085,10.285h-2.1v-1.7a.415.415,0,0,0-.444-.378h-17.6a.415.415,0,0,0-.444.378v4.151a.415.415,0,0,0,.444.378h17.6a.415.415,0,0,0,.444-.378v-1.7h1.66v4.043l-10.707,2.2a.4.4,0,0,0-.34.367v1.886H22.46a.415.415,0,0,0-.444.378v8.963a.415.415,0,0,0,.444.378h3.156a.415.415,0,0,0,.444-.378V19.908a.415.415,0,0,0-.444-.378H24.482V17.942l10.707-2.2a.4.4,0,0,0,.34-.367V10.662A.415.415,0,0,0,35.085,10.285ZM32.091,12.36H15.378v-3.4H32.091Zm-6.92,16.134H22.9V20.286h2.268Z" transform="translate(-14.489 -8.209)" /></svg>