<svg xmlns="http://www.w3.org/2000/svg" width="18.035" height="21.04" viewBox="0 0 18.035 21.04"><g transform="translate(-79.985 -10)"><g transform="translate(79.985 10)"><path d="M80.636-500.876a1.124,1.124,0,0,0-.594.729c-.053.17-.065,2.756-.053,9.827l.018,9.586.176.259a1.662,1.662,0,0,0,.411.382l.235.135,8.234-.018,8.228-.012.241-.159a1.168,1.168,0,0,0,.364-.411l.123-.258v-9.65c0-6.659-.018-9.691-.065-9.809a1.427,1.427,0,0,0-.623-.641c-.159-.07-1.534-.082-8.316-.082H80.888Zm7.628,5.871v3.761H82.269v-7.523h5.995Zm7.523,0v3.761H89.792v-7.523h5.995Zm-7.523,9.051v3.762H82.269v-7.523h5.995Zm7.523,0v3.762H89.792v-7.523h5.995Z" transform="translate(-79.985 501)" /></g></g></svg>