<svg xmlns="http://www.w3.org/2000/svg" width="31" height="17.218" viewBox="0 0 31 17.218"><path d="M116.889,198.393a3.012,3.012,0,0,1,.057,1.647,2.248,2.248,0,0,1-1.7,1.831,1.955,1.955,0,0,1-.434.04c-.9,0-1.8.006-2.7,0a.417.417,0,0,0-.368.175,6.254,6.254,0,0,1-3.456,2.283,9.261,9.261,0,0,1-2.177.124q-6.011.005-12.021,0a5.781,5.781,0,0,1-4.447-2.09,9,9,0,0,1-2.142-4.546,10.568,10.568,0,0,1,.617-6.05,7.625,7.625,0,0,1,3.037-3.714,5.281,5.281,0,0,1,2.819-.816q6.547.005,13.094,0a5.657,5.657,0,0,1,3.976,1.646,8.919,8.919,0,0,1,.711.774.384.384,0,0,0,.331.161c.877-.007,1.755.018,2.633-.008a2.242,2.242,0,0,1,2.228,1.874,3.2,3.2,0,0,1-.037,1.579.227.227,0,0,0,.094.193,2.484,2.484,0,0,1,1.3,2.166,2.688,2.688,0,0,1-.653,2.092A7.179,7.179,0,0,1,116.889,198.393ZM103.095,189h-.234c-2.9,0-5.806.008-8.708,0a4.079,4.079,0,0,0-2.858,1.125,6.674,6.674,0,0,0-1.852,3.071,9.141,9.141,0,0,0-.272,4.221,7.467,7.467,0,0,0,1.74,3.85,4.073,4.073,0,0,0,3.112,1.51q4.431.009,8.862,0c.061,0,.12-.008.2-.015A10.3,10.3,0,0,1,103.095,189Zm7.785,9.055a76.854,76.854,0,0,1-8.647-1.234,9.063,9.063,0,0,0,.511,2.271.417.417,0,0,0,.386.3c2.261.344,4.521.695,6.781,1.039.3.046.611.066.931.1A2.764,2.764,0,0,1,110.88,198.053Zm-1.259-3.477-7.119-1.125a9.315,9.315,0,0,0-.328,2.467c2.453.437,4.883.9,7.381,1.168A2.646,2.646,0,0,1,109.621,194.577Zm-6.884-1.994a74.208,74.208,0,0,0,8.169,1.161,2.719,2.719,0,0,1-.34-1.309,2.669,2.669,0,0,1,.338-1.288c-2.45,0-4.861,0-7.272,0a.186.186,0,0,0-.139.074C103.247,191.658,103.007,192.1,102.737,192.583Zm1.563-2.309h5.662A3.793,3.793,0,0,0,104.3,190.273Zm-.015,11.227a3.778,3.778,0,0,0,5.644,0Zm11.5-9.029-.058-.019a1.507,1.507,0,0,0-.286-.966.652.652,0,0,0-1.164.047,1.648,1.648,0,0,0-.024,1.784.668.668,0,0,0,1.243-.014A5.134,5.134,0,0,0,115.784,192.472Zm-2.641-.111a1.508,1.508,0,0,0-.317-.912.637.637,0,0,0-1.073,0,1.7,1.7,0,0,0,0,2,.64.64,0,0,0,1.062,0A1.627,1.627,0,0,0,113.143,192.361Zm0,6.983a1.545,1.545,0,0,0-.337-1.03.629.629,0,0,0-1.031-.007,1.681,1.681,0,0,0,0,2.045.63.63,0,0,0,1.031-.01A1.519,1.519,0,0,0,113.144,199.344Zm2.584.18a1.7,1.7,0,0,0-.344-1.212.612.612,0,0,0-1-.031,1.678,1.678,0,0,0-.02,2.078.627.627,0,0,0,1.045-.035A1.444,1.444,0,0,0,115.728,199.523Zm-5.585-3.59a1.466,1.466,0,0,0,.38,1.017.611.611,0,0,0,.911.034,1.642,1.642,0,0,0,.012-2.185.615.615,0,0,0-.941.042A1.567,1.567,0,0,0,110.143,195.934Zm5.17-.054a1.457,1.457,0,0,0,.358,1.047.628.628,0,0,0,.99,0,1.686,1.686,0,0,0-.01-2.095.62.62,0,0,0-.973,0A1.452,1.452,0,0,0,115.313,195.88Zm-2.588,0a1.6,1.6,0,0,0,.266.929.663.663,0,0,0,1.181,0,1.693,1.693,0,0,0-.05-1.907.636.636,0,0,0-1.072-.018A1.559,1.559,0,0,0,112.725,195.88Zm-9.352,4.429-.034.051c.093.088.182.248.28.253.476.026.954.012,1.432.012l0-.036Z" transform="translate(-87.316 -187.28)" /></svg>