<svg xmlns="http://www.w3.org/2000/svg" width="21" height="21" viewBox="0 0 21 21"><path d="M26.727,14.345H9.273A1.848,1.848,0,0,1,7.5,12.423,1.848,1.848,0,0,1,9.273,10.5H26.727A1.848,1.848,0,0,1,28.5,12.423,1.848,1.848,0,0,1,26.727,14.345ZM28.5,21a1.848,1.848,0,0,0-1.773-1.923H9.273a1.929,1.929,0,0,0,0,3.845H26.727A1.848,1.848,0,0,0,28.5,21Zm0,8.577a1.848,1.848,0,0,0-1.773-1.923H9.273a1.929,1.929,0,0,0,0,3.845H26.727A1.848,1.848,0,0,0,28.5,29.577Z" transform="translate(-7.5 -10.5)" fill="#91a0b8"/></svg>