<svg xmlns="http://www.w3.org/2000/svg" width="14.108" height="20.953" viewBox="0 0 14.108 20.953"><path d="M62.963,33.91h.493a.9.9,0,0,1-.033.11q-.175.4-.352.8a7.077,7.077,0,0,0-.657,3.2,3.429,3.429,0,0,0,.092.766c.133-.1.253-.187.375-.273a3.155,3.155,0,0,1,1.17-.565,2.957,2.957,0,0,1,.353-.03c-.005.055-.006.08-.01.1-.08.5-.176,1-.236,1.5a4.783,4.783,0,0,0,.146,1.965,2.923,2.923,0,0,0,.554,1.142c.263.294.537.577.806.864a15,15,0,0,1,1.554,1.859,4.656,4.656,0,0,1,.788,3.623,7.009,7.009,0,0,1-3.314,4.9,6.659,6.659,0,0,1-5,.819,6.4,6.4,0,0,1-3.944-2.673,9.983,9.983,0,0,1-1.695-4.9c-.025-.254-.04-.51-.059-.764v-.406c0-.042.013-.084.014-.126a10.549,10.549,0,0,1,.435-2.649,14.594,14.594,0,0,1,2.872-5.306,14.123,14.123,0,0,1,3.235-2.953,7.334,7.334,0,0,1,1.706-.84C62.484,34,62.726,33.963,62.963,33.91ZM59.618,53.673c-.027-.073-.045-.114-.058-.157a3.336,3.336,0,0,1-.159-.547,5.181,5.181,0,0,1,.013-1.553,4.658,4.658,0,0,1,.971-2.229c.106-.127.222-.244.349-.383,0,.119,0,.207,0,.3a1.144,1.144,0,0,0,.271.8c.131.154.273.3.414.442.293.3.61.568.879.887a2.2,2.2,0,0,1,.265,2.474l-.063.13a.215.215,0,0,0,.061,0c.09-.035.18-.067.267-.108A4.007,4.007,0,0,0,65,51.237a3.792,3.792,0,0,0,.16-1.559,2.352,2.352,0,0,0-.706-1.43c-.369-.373-.768-.713-1.16-1.059A9.931,9.931,0,0,1,62.14,46.1,2.969,2.969,0,0,1,61.423,44a5.411,5.411,0,0,1,.323-1.566c.018-.052.035-.1.061-.178-.09.016-.161.025-.23.041a3.237,3.237,0,0,0-1.433.817,8.975,8.975,0,0,0-2.473,3.68,6.1,6.1,0,0,0-.393,1.593c-.028.347-.009.7-.018,1.046a4.165,4.165,0,0,0,.141,1.127,5.092,5.092,0,0,0,1.545,2.667A2.646,2.646,0,0,0,59.618,53.673Z" transform="translate(-53.99 -33.91)" /></svg>