<svg xmlns="http://www.w3.org/2000/svg" width="20.919" height="21.1" viewBox="0 0 20.919 21.1"><g transform="translate(-10 -5.75)"><g transform="translate(10 5.75)"><path d="M445.19-506.2a19.553,19.553,0,0,0-3.8.577l-.28.082v3.787l1.146-.008,1.142-.012.021-1.649.02-1.648.371-.045c.206-.025.515-.058.688-.074l.317-.033.012.243.012.239.816.012.812.008v-1.525l-.379,0C445.878-506.242,445.474-506.221,445.19-506.2Z" transform="translate(-431.908 506.25)" /><path d="M262.956-380.647a.468.468,0,0,0,0,.742c.082.074.161.082.766.095l.676.012v.861h.948v-1.813h-2.258Z" transform="translate(-257.376 383.429)" /><path d="M616.79-379.853v.907h.948v-.861l.676-.012c.606-.012.684-.021.767-.095a.468.468,0,0,0,0-.742l-.128-.1H616.79v.907Z" transform="translate(-603.838 383.439)" /><path d="M10.029-266.648c.239,1.809,2.992,3.66,6.557,4.41a18.5,18.5,0,0,0,3.276.4c.672.029.721.033.812.124a.274.274,0,0,1-.012.416l-.107.107-.812-.025a20.238,20.238,0,0,1-2.39-.218,2.517,2.517,0,0,0-.4-.045c-.012.016-1.455,10.488-1.455,10.587,0,.021,2.234.033,4.966.033s4.966-.012,4.966-.025-.342-2.547-.762-5.63-.758-5.613-.754-5.621.239-.062.507-.12c2.835-.606,5.234-1.958,6.12-3.441a2.6,2.6,0,0,0,.354-.952l.029-.2H10Z" transform="translate(-10 271.96)" /></g></g></svg>